<?xml version="1.0" standalone="no"?>
<!DOCTYPE svg PUBLIC "-//W3C//DTD SVG 20010904//EN"
 "http://www.w3.org/TR/2001/REC-SVG-20010904/DTD/svg10.dtd">
<svg version="1.0" xmlns="http://www.w3.org/2000/svg"
 width="512.000000pt" height="512.000000pt" viewBox="0 0 512.000000 512.000000"
 preserveAspectRatio="xMidYMid meet">

<g transform="translate(0.000000,512.000000) scale(0.100000,-0.100000)"
fill="#000000" stroke="none">
<path d="M2145 4740 l-381 -380 -480 0 -481 0 -21 -23 c-22 -23 -22 -24 -22
-502 l0 -479 -380 -381 c-350 -351 -380 -384 -380 -415 0 -31 30 -64 380 -415
l380 -381 0 -480 0 -481 23 -21 c23 -22 24 -22 502 -22 l479 0 381 -380 c351
-350 384 -380 415 -380 31 0 64 30 415 380 l381 380 480 0 481 0 21 23 c22 23
22 24 22 502 l0 479 380 381 c350 351 380 384 380 415 0 31 -30 64 -380 415
l-380 381 0 480 0 481 -23 21 c-23 21 -30 22 -276 22 l-252 0 -24 -25 c-14
-13 -25 -36 -25 -50 0 -14 11 -37 25 -50 24 -25 25 -25 225 -25 l200 0 0 -451
c0 -309 3 -457 11 -472 6 -12 169 -181 362 -374 l352 -353 -352 -353 c-193
-193 -356 -362 -362 -374 -8 -15 -11 -163 -11 -472 l0 -451 -451 0 c-309 0
-457 -3 -472 -11 -12 -6 -181 -169 -374 -362 l-353 -352 -352 352 c-194 193
-363 356 -375 362 -15 8 -163 11 -472 11 l-451 0 0 451 c0 309 -3 457 -11 472
-6 12 -169 181 -362 375 l-352 352 352 353 c193 193 356 362 362 374 8 15 11
163 11 472 l0 451 451 0 c309 0 457 3 472 11 12 6 181 169 375 362 l352 352
353 -352 c193 -193 362 -356 374 -362 12 -6 67 -11 123 -11 94 0 103 2 125 25
32 31 32 69 0 100 -21 22 -33 25 -102 25 l-77 0 -381 380 c-351 350 -384 380
-415 380 -31 0 -64 -30 -415 -380z"/>
<path d="M2240 4255 l-295 -295 -357 0 c-240 0 -365 -4 -381 -11 -14 -6 -30
-22 -36 -36 -7 -16 -11 -141 -11 -381 l0 -357 -295 -295 c-224 -225 -295 -302
-295 -320 0 -18 71 -95 295 -320 l295 -295 0 -357 c0 -240 4 -365 11 -381 17
-37 50 -47 150 -47 82 0 92 2 114 25 31 30 33 77 5 105 -15 15 -33 20 -75 20
l-55 0 0 347 0 347 -277 279 -278 279 57 52 c106 97 209 136 358 136 179 0
265 -45 460 -240 80 -80 186 -180 235 -222 515 -432 1134 -676 1815 -716 l125
-7 3 -127 3 -128 -348 0 -347 0 -278 -277 -278 -278 -278 278 -278 277 -146 0
c-160 0 -180 -7 -194 -62 -5 -22 0 -33 24 -58 30 -30 31 -30 144 -30 l113 0
295 -295 c225 -224 302 -295 320 -295 18 0 95 71 320 295 l295 295 357 0 c240
0 365 4 381 11 14 6 30 22 36 36 7 16 11 141 11 381 l0 357 295 295 c224 225
295 302 295 320 0 18 -71 95 -295 320 l-295 295 0 357 c0 240 -4 365 -11 381
-6 14 -22 30 -36 36 -16 7 -141 11 -381 11 l-357 0 -295 295 c-225 224 -302
295 -320 295 -18 0 -95 -71 -320 -295z m600 -170 l276 -275 347 0 347 0 0
-346 0 -347 106 -107 105 -107 -108 -5 c-121 -5 -213 -32 -311 -90 -33 -19
-122 -98 -212 -187 -247 -245 -460 -408 -728 -556 l-103 -56 -67 37 c-307 169
-493 310 -762 576 -89 87 -180 167 -212 186 -98 58 -190 85 -311 90 l-108 5
105 107 106 107 0 347 0 346 347 0 347 0 276 275 c151 151 277 275 280 275 2
0 129 -124 280 -275z m1255 -1350 c80 -21 148 -60 215 -122 l55 -52 -277 -278
-278 -279 0 -142 0 -142 -63 0 c-235 0 -632 74 -880 164 -140 51 -137 46 -59
90 222 127 458 311 669 522 159 160 206 195 313 231 79 27 216 31 305 8z"/>
<path d="M2070 3654 c-69 -19 -111 -43 -129 -75 -12 -22 -12 -29 0 -54 22 -46
57 -53 139 -26 141 47 289 13 391 -89 43 -43 89 -115 89 -139 0 -5 -23 -14
-50 -20 -84 -18 -156 -63 -200 -126 -8 -12 -33 -26 -56 -33 -66 -19 -119 -64
-149 -126 -23 -48 -27 -66 -23 -120 l4 -64 -25 10 c-75 28 -168 118 -204 196
-18 38 -22 66 -22 147 1 55 4 117 9 137 7 32 5 40 -17 62 -53 53 -116 23 -136
-64 -16 -68 -13 -209 5 -271 58 -196 232 -351 429 -379 39 -5 225 -9 420 -7
337 2 351 3 390 24 126 68 171 208 108 334 -32 61 -101 115 -162 125 -27 4
-43 15 -60 39 -12 18 -38 44 -56 57 -27 18 -37 34 -46 73 -43 182 -200 342
-384 390 -73 19 -192 18 -265 -1z m552 -556 c24 -7 51 -26 71 -50 78 -95 83
-98 130 -98 87 0 129 -91 73 -157 l-24 -28 -278 -3 c-292 -3 -320 0 -349 42
-41 58 7 146 80 146 38 0 58 16 114 90 25 33 90 69 125 70 10 0 36 -5 58 -12z"/>
<path d="M2935 3493 c-36 -9 -55 -34 -55 -73 0 -65 14 -70 203 -70 l166 0 20
26 c27 35 26 57 -3 91 l-24 28 -144 2 c-78 1 -152 -1 -163 -4z"/>
<path d="M3253 3190 c-46 -19 -57 -83 -20 -118 22 -21 33 -22 185 -22 153 0
162 1 182 22 25 27 26 69 1 99 -18 23 -25 24 -173 26 -84 1 -163 -2 -175 -7z"/>
<path d="M2362 2483 c-12 -10 -24 -30 -28 -45 -5 -22 0 -33 24 -58 l30 -30
172 0 172 0 30 30 c24 25 29 36 24 58 -14 57 -31 62 -226 62 -155 0 -180 -2
-198 -17z"/>
<path d="M3768 2506 c-41 -31 -37 -113 7 -130 22 -8 148 -8 170 0 26 10 45 63
34 93 -16 41 -38 50 -119 50 -46 0 -82 -5 -92 -13z"/>
<path d="M3201 2094 c-53 -67 -2 -124 110 -124 81 0 119 28 119 86 0 48 -31
64 -124 64 -79 0 -86 -2 -105 -26z"/>
<path d="M1454 2217 c-35 -31 -38 -82 -5 -109 35 -27 173 -26 201 2 30 30 27
83 -6 109 -40 32 -152 30 -190 -2z"/>
<path d="M2025 1815 c-14 -13 -25 -36 -25 -50 0 -14 11 -37 25 -50 21 -22 33
-25 98 -25 91 0 127 21 127 75 0 54 -36 75 -127 75 -65 0 -77 -3 -98 -25z"/>
<path d="M1556 1609 c-33 -26 -36 -79 -6 -109 28 -28 166 -29 201 -2 33 27 30
78 -5 109 -38 32 -150 34 -190 2z"/>
<path d="M2419 1402 c-33 -27 -30 -78 5 -109 38 -32 150 -34 190 -2 33 26 36
79 6 109 -28 28 -166 29 -201 2z"/>
</g>
</svg>
