<?xml version="1.0" encoding="UTF-8"?>
<svg width="700pt" height="700pt" version="1.1" viewBox="0 0 700 700" xmlns="http://www.w3.org/2000/svg" xmlns:xlink="http://www.w3.org/1999/xlink">
 <defs>
  <symbol id="l" overflow="visible">
   <path d="m29.312-1.75c-1.5117 0.78125-3.0898 1.3711-4.7344 1.7656-1.6367 0.40625-3.3398 0.60938-5.1094 0.60938-5.3125 0-9.5273-1.4844-12.641-4.4531-3.1055-2.9688-4.6562-7-4.6562-12.094s1.5508-9.125 4.6562-12.094c3.1133-2.9688 7.3281-4.4531 12.641-4.4531 1.7695 0 3.4727 0.19922 5.1094 0.59375 1.6445 0.39844 3.2227 0.99219 4.7344 1.7812v6.5938c-1.5312-1.0391-3.0391-1.8008-4.5156-2.2812-1.4805-0.48828-3.0391-0.73438-4.6719-0.73438-2.9375 0-5.2461 0.94531-6.9219 2.8281-1.6797 1.875-2.5156 4.4648-2.5156 7.7656 0 3.293 0.83594 5.8828 2.5156 7.7656 1.6758 1.875 3.9844 2.8125 6.9219 2.8125 1.6328 0 3.1914-0.23828 4.6719-0.71875 1.4766-0.48828 2.9844-1.2539 4.5156-2.2969z"/>
  </symbol>
  <symbol id="e" overflow="visible">
   <path d="m21.453-17.406c-0.67969-0.3125-1.3516-0.53906-2.0156-0.6875-0.65625-0.15625-1.3203-0.23438-1.9844-0.23438-1.9688 0-3.4844 0.63281-4.5469 1.8906-1.0547 1.2617-1.5781 3.0703-1.5781 5.4219v11.016h-7.6562v-23.922h7.6562v3.9219c0.97656-1.5625 2.1016-2.7031 3.375-3.4219 1.2812-0.71875 2.8125-1.0781 4.5938-1.0781 0.25 0 0.52344 0.011719 0.82812 0.03125 0.30078 0.023438 0.73438 0.070312 1.2969 0.14062z"/>
  </symbol>
  <symbol id="b" overflow="visible">
   <path d="m27.562-12.031v2.1875h-17.891c0.1875 1.793 0.83203 3.1367 1.9375 4.0312 1.1133 0.89844 2.6719 1.3438 4.6719 1.3438 1.6016 0 3.25-0.23438 4.9375-0.70312 1.6875-0.47656 3.4219-1.2031 5.2031-2.1719v5.8906c-1.8047 0.6875-3.6094 1.2031-5.4219 1.5469-1.8125 0.35156-3.6211 0.53125-5.4219 0.53125-4.3359 0-7.7031-1.0977-10.109-3.2969-2.3984-2.207-3.5938-5.2969-3.5938-9.2656 0-3.9062 1.1758-6.9727 3.5312-9.2031 2.3633-2.2383 5.6094-3.3594 9.7344-3.3594 3.7578 0 6.7695 1.1367 9.0312 3.4062 2.2578 2.2617 3.3906 5.2812 3.3906 9.0625zm-7.8594-2.5312c0-1.457-0.42969-2.6289-1.2812-3.5156-0.84375-0.89453-1.9492-1.3438-3.3125-1.3438-1.4922 0-2.6992 0.41797-3.625 1.25-0.91797 0.83594-1.4922 2.0391-1.7188 3.6094z"/>
  </symbol>
  <symbol id="a" overflow="visible">
   <path d="m14.391-10.766c-1.5938 0-2.793 0.27344-3.5938 0.8125-0.80469 0.54297-1.2031 1.3398-1.2031 2.3906 0 0.96875 0.32031 1.7305 0.96875 2.2812 0.64453 0.54297 1.5469 0.8125 2.7031 0.8125 1.4375 0 2.6445-0.51562 3.625-1.5469 0.98828-1.0312 1.4844-2.3203 1.4844-3.875v-0.875zm11.688-2.8906v13.656h-7.7031v-3.5469c-1.0312 1.4492-2.1875 2.5078-3.4688 3.1719s-2.8398 1-4.6719 1c-2.4805 0-4.4961-0.72266-6.0469-2.1719-1.543-1.4453-2.3125-3.3203-2.3125-5.625 0-2.8125 0.96094-4.8672 2.8906-6.1719 1.9375-1.3125 4.9688-1.9688 9.0938-1.9688h4.5156v-0.60938c0-1.207-0.48047-2.0938-1.4375-2.6562-0.94922-0.5625-2.4375-0.84375-4.4688-0.84375-1.6367 0-3.1562 0.16797-4.5625 0.5-1.4062 0.32422-2.7188 0.8125-3.9375 1.4688v-5.8281c1.6445-0.40625 3.2891-0.70703 4.9375-0.90625 1.6562-0.20703 3.3047-0.3125 4.9531-0.3125 4.3203 0 7.4375 0.85547 9.3438 2.5625 1.9141 1.6992 2.875 4.4609 2.875 8.2812z"/>
  </symbol>
  <symbol id="d" overflow="visible">
   <path d="m12.031-30.719v6.7969h7.875v5.4688h-7.875v10.141c0 1.1172 0.21875 1.8711 0.65625 2.2656 0.4375 0.38672 1.3125 0.57812 2.625 0.57812h3.9375v5.4688h-6.5625c-3.0234 0-5.1641-0.62891-6.4219-1.8906-1.2617-1.2578-1.8906-3.3984-1.8906-6.4219v-10.141h-3.7969v-5.4688h3.7969v-6.7969z"/>
  </symbol>
  <symbol id="h" overflow="visible">
   <path d="m19.953-20.422v-12.812h7.6875v33.234h-7.6875v-3.4531c-1.0547 1.4062-2.2148 2.4375-3.4844 3.0938-1.2734 0.65625-2.7422 0.98438-4.4062 0.98438-2.9492 0-5.3711-1.1719-7.2656-3.5156-1.8867-2.3438-2.8281-5.3594-2.8281-9.0469s0.94141-6.7031 2.8281-9.0469c1.8945-2.3438 4.3164-3.5156 7.2656-3.5156 1.6562 0 3.1172 0.33594 4.3906 1 1.2812 0.65625 2.4453 1.6836 3.5 3.0781zm-5.0469 15.484c1.6445 0 2.8945-0.59766 3.75-1.7969 0.86328-1.1953 1.2969-2.9297 1.2969-5.2031 0-2.2812-0.43359-4.0195-1.2969-5.2188-0.85547-1.1953-2.1055-1.7969-3.75-1.7969-1.625 0-2.8711 0.60156-3.7344 1.7969-0.85547 1.1992-1.2812 2.9375-1.2812 5.2188 0 2.2734 0.42578 4.0078 1.2812 5.2031 0.86328 1.1992 2.1094 1.7969 3.7344 1.7969z"/>
  </symbol>
  <symbol id="g" overflow="visible">
   <path d="m16.406-4.9375c1.6328 0 2.8828-0.59766 3.75-1.7969 0.86328-1.1953 1.2969-2.9297 1.2969-5.2031 0-2.2812-0.43359-4.0195-1.2969-5.2188-0.86719-1.1953-2.1172-1.7969-3.75-1.7969-1.6367 0-2.8906 0.60547-3.7656 1.8125-0.875 1.1992-1.3125 2.9336-1.3125 5.2031 0 2.2617 0.4375 3.9961 1.3125 5.2031 0.875 1.1992 2.1289 1.7969 3.7656 1.7969zm-5.0781-15.484c1.0508-1.3945 2.2188-2.4219 3.5-3.0781 1.2812-0.66406 2.7539-1 4.4219-1 2.9453 0 5.3672 1.1719 7.2656 3.5156 1.8945 2.3438 2.8438 5.3594 2.8438 9.0469s-0.94922 6.7031-2.8438 9.0469c-1.8984 2.3438-4.3203 3.5156-7.2656 3.5156-1.668 0-3.1406-0.33594-4.4219-1s-2.4492-1.6914-3.5-3.0781v3.4531h-7.6562v-33.234h7.6562z"/>
  </symbol>
  <symbol id="c" overflow="visible">
   <path d="m0.53125-23.922h7.6562l6.4219 16.234 5.4688-16.234h7.6562l-10.062 26.188c-1.0117 2.6641-2.1953 4.5234-3.5469 5.5781-1.3438 1.0625-3.1211 1.5938-5.3281 1.5938h-4.4219v-5.0156h2.3906c1.3008 0 2.2422-0.21094 2.8281-0.625 0.59375-0.40625 1.0547-1.1484 1.3906-2.2188l0.20312-0.65625z"/>
  </symbol>
  <symbol id="f" overflow="visible">
   <path d="m26.219-30.891v6.75c-1.7617-0.78125-3.4766-1.3672-5.1406-1.7656-1.668-0.40625-3.2422-0.60938-4.7188-0.60938-1.9609 0-3.4141 0.27344-4.3594 0.8125-0.9375 0.54297-1.4062 1.3867-1.4062 2.5312 0 0.85547 0.31641 1.5234 0.95312 2 0.63281 0.46875 1.7852 0.875 3.4531 1.2188l3.5 0.70312c3.5391 0.71875 6.0625 1.8047 7.5625 3.25 1.5 1.4492 2.25 3.5117 2.25 6.1875 0 3.5234-1.0469 6.1406-3.1406 7.8594-2.0859 1.7188-5.2734 2.5781-9.5625 2.5781-2.0234 0-4.0547-0.19531-6.0938-0.57812-2.0312-0.38281-4.0625-0.95703-6.0938-1.7188v-6.9375c2.0312 1.0859 3.9922 1.9023 5.8906 2.4531 1.9062 0.54297 3.7422 0.8125 5.5156 0.8125 1.7891 0 3.1602-0.29688 4.1094-0.89062 0.95703-0.60156 1.4375-1.457 1.4375-2.5625 0-1-0.32422-1.7695-0.96875-2.3125-0.64844-0.53906-1.9375-1.0234-3.875-1.4531l-3.1875-0.70312c-3.1875-0.6875-5.5234-1.7734-7-3.2656-1.4688-1.5-2.2031-3.5156-2.2031-6.0469 0-3.1758 1.0234-5.6172 3.0781-7.3281 2.0508-1.707 5-2.5625 8.8438-2.5625 1.75 0 3.5508 0.13281 5.4062 0.39062 1.8516 0.26172 3.7695 0.65625 5.75 1.1875z"/>
  </symbol>
  <symbol id="k" overflow="visible">
   <path d="m27.734-14.562v14.562h-7.7031v-11.156c0-2.0625-0.046875-3.4844-0.14062-4.2656-0.085937-0.78125-0.24219-1.3594-0.46875-1.7344-0.30469-0.5-0.71094-0.88281-1.2188-1.1562-0.51172-0.28125-1.0938-0.42188-1.75-0.42188-1.5938 0-2.8516 0.61719-3.7656 1.8438-0.90625 1.2305-1.3594 2.9375-1.3594 5.125v11.766h-7.6562v-23.922h7.6562v3.5c1.1445-1.3945 2.3633-2.4219 3.6562-3.0781 1.3008-0.66406 2.7383-1 4.3125-1 2.7578 0 4.8516 0.85156 6.2812 2.5469 1.4375 1.6875 2.1562 4.1523 2.1562 7.3906z"/>
  </symbol>
  <symbol id="j" overflow="visible">
   <path d="m4.0156-31.891h8.2188v31.891h-8.2188z"/>
  </symbol>
  <symbol id="i" overflow="visible">
   <path d="m25.844-19.953c0.96875-1.4766 2.1172-2.6016 3.4531-3.375 1.332-0.78125 2.7969-1.1719 4.3906-1.1719 2.75 0 4.8438 0.85156 6.2812 2.5469 1.4375 1.6875 2.1562 4.1523 2.1562 7.3906v14.562h-7.6875v-12.469c0.007812-0.1875 0.019531-0.37891 0.03125-0.57812 0.007812-0.19531 0.015625-0.48438 0.015625-0.85938 0-1.6953-0.25-2.9258-0.75-3.6875-0.5-0.75781-1.3086-1.1406-2.4219-1.1406-1.4492 0-2.5703 0.60156-3.3594 1.7969-0.79297 1.1992-1.2031 2.9297-1.2344 5.1875v11.75h-7.6875v-12.469c0-2.6562-0.23047-4.3633-0.6875-5.125-0.44922-0.75781-1.2578-1.1406-2.4219-1.1406-1.4688 0-2.6055 0.60547-3.4062 1.8125-0.79297 1.1992-1.1875 2.918-1.1875 5.1562v11.766h-7.7031v-23.922h7.7031v3.5c0.9375-1.3516 2.0156-2.3672 3.2344-3.0469 1.2188-0.6875 2.5547-1.0312 4.0156-1.0312 1.6562 0 3.1133 0.40234 4.375 1.2031 1.2695 0.79297 2.2344 1.9062 2.8906 3.3438z"/>
  </symbol>
 </defs>
 <g>
  <path d="m315.23 151.32c-3.1562-0.89453-6.4609-1.125-9.7109-0.67188l3.6992-15.531c1.5117-6.4805 0.43359-13.297-2.9961-19-3.4336-5.6992-8.9531-9.8398-15.387-11.539-3.1953-0.83594-6.5234-1.0391-9.7969-0.58984-0.69922-9.2734-5.832-17.633-13.785-22.453-7.9531-4.8164-17.742-5.4961-26.281-1.8242-8.543 3.6719-14.785 11.246-16.758 20.328l-0.78516 3.5625v0.003906c-7.4688-5.0977-16.949-6.2305-25.406-3.0391-8.457 3.1875-14.828 10.301-17.07 19.059l-20.484 79.668c-3.7422-4.2305-7.9648-8.0039-12.586-11.25-4.4883-3.0508-10.176-3.7422-15.266-1.8516-5.0859 1.8867-8.9453 6.125-10.355 11.363l-15.145 57.875h-0.003907c-5.4062 23.203 1.2266 47.57 17.648 64.832 15.82 21.805 24.328 48.062 24.301 75.008v7.6914-0.003906c-7-0.68359-13.98 1.4922-19.352 6.0352-10.082 7.2539-9.6211 22.426-10.613 33.438-0.57031 6.9258 1.6172 13.801 6.0938 19.125 4.4727 5.3242 10.867 8.6641 17.789 9.293l133.84 11.594v0.003907c6.9297 0.5625 13.801-1.6289 19.125-6.1016 5.3203-4.4766 8.6602-10.867 9.293-17.793l1.3516-15.602h-0.003906c0.5625-6.6055-1.4023-13.18-5.4961-18.391-4.0977-5.2109-10.02-8.6758-16.57-9.6914 1.6523-7.4766 5.6641-14.223 11.441-19.238 14.051-10.492 22.645-26.738 23.414-44.254v-12.797c-0.50781-13.988-2.8633-27.852-7.0078-41.227-2.7656-11.172-2.6797-22.863 0.25391-33.992l21.145-80.074c1.7617-6.6953 0.80078-13.82-2.6758-19.809-3.4727-5.9883-9.1758-10.359-15.863-12.156zm-26.07 290.11-1.3516 15.613c-0.45703 4.793-4.6719 8.3359-9.4688 7.9648l-133.85-11.598c-4.8047-0.4375-8.3594-4.668-7.9609-9.4766l1.3516-15.613-0.003906 0.003906c0.44531-4.8008 4.6719-8.3477 9.4727-7.957l133.84 11.586v0.003906c4.8125 0.42188 8.375 4.6602 7.9648 9.4727zm27.699-262.64-21.152 80.109c-4.3438 19.383-3.1133 39.602 3.5586 58.312 2.3867 11.27 3.2656 22.812 2.6133 34.316-0.93359 12.266-7.2227 23.504-17.188 30.719-9.2891 7.9648-15.566 18.879-17.781 30.914l-100.35-8.6875c1.8047-33.723-7.9453-67.055-27.641-94.492-11.809-13.98-20.309-31.66-14.879-50.125l14.566-56.926h0.003906c6.9688 4.9531 12.461 11.707 15.895 19.539-7.5977 22.043-6.4805 46.191 10.5 63.609l11.148 11.816v0.003906c9.9297 10.543 14.176 25.219 11.406 39.434-1.8828 5.793-0.625 12.453 6.1875 13.887 6.8359 1.168 10.48-4.2734 10.984-10.512h-0.003906c3.8555-19.758-2.043-40.164-15.84-54.824l-11.152-11.816c-9.0508-9.5391-12.539-23.07-9.2266-35.797l29.387-114.29-0.003907 0.003906c1.4805-5.3242 6.9062-8.5273 12.281-7.2539 5.3789 1.2773 8.7852 6.5742 7.7148 11.996l-21.828 100.23c-0.51172 2.2734-0.09375 4.6602 1.1562 6.625 1.2539 1.9688 3.2383 3.3516 5.5195 3.8477 2.2773 0.49609 4.6562 0.0625 6.6172-1.2031 1.957-1.2656 3.3281-3.2617 3.8047-5.543l21.828-100.24 6.3125-28.645h0.003907c0.65625-2.9805 2.4805-5.5664 5.0664-7.1836 2.5859-1.6172 5.7109-2.125 8.6758-1.4102 2.9648 0.71094 5.5156 2.5898 7.082 5.207 1.5625 2.6133 2.0117 5.75 1.2383 8.6992l-32.531 124.36c-1.1133 4.6328 1.6836 9.3086 6.2969 10.512 4.6094 1.207 9.3359-1.5 10.633-6.0859 3.6016-14.066 25.926-98.625 28.98-110.64v0.003906c1.1445-4.1562 5.3906-6.6406 9.5742-5.6094 4.1836 1.0273 6.7891 5.1992 5.8789 9.4102l-30.965 130c-1.0117 4.6562 1.8906 9.2656 6.5273 10.371 4.6367 1.1016 9.3008-1.7109 10.496-6.3242 3.4375-14.527 18.406-77.383 21.773-90.566 1.2109-4.6016 5.9023-7.3672 10.516-6.2031s7.4297 5.8242 6.3125 10.449z"/>
  <path d="m575.21 320.3c16.441-17.266 23.082-41.652 17.672-64.871l-15.145-57.875c-1.3867-5.3086-5.2852-9.5977-10.438-11.484-11.711-4.0312-19.664 4.875-27.77 13.223l-20.484-79.668c-2.2383-8.7578-8.6094-15.871-17.07-19.062-8.457-3.1875-17.938-2.0508-25.406 3.043-1.1367-9.3906-6.6016-17.707-14.77-22.484-8.5859-4.7188-18.973-4.7812-27.613-0.16406-8.6445 4.6133-14.371 13.277-15.227 23.039-8.293-1.0352-16.574 2.0352-22.184 8.2344-5.6094 6.1953-7.8477 14.734-5.9961 22.887l3.6992 15.527c-8.5625-0.94141-17.039 2.3828-22.68 8.8906-5.6406 6.5117-7.7266 15.375-5.5781 23.715l21.152 80.109c2.9336 11.129 3.0195 22.82 0.25391 33.992-4.1211 13.379-6.4766 27.238-7.0078 41.227v12.641c0.73047 17.57 9.332 33.879 23.418 44.406 5.7773 5.0195 9.7852 11.766 11.438 19.242-6.5508 1.0156-12.473 4.4766-16.566 9.6875-4.0938 5.2109-6.0625 11.781-5.5 18.383 1.0625 10.742 0.5 26.41 10.609 33.445 5.3164 4.5 12.215 6.6797 19.156 6.0586l133.84-11.594c6.9219-0.62891 13.316-3.9688 17.789-9.2891 4.4766-5.3203 6.668-12.195 6.0977-19.125-1.0156-11.281-0.48047-25.98-10.613-33.445v0.003906c-5.3633-4.5547-12.348-6.7344-19.352-6.0352-1.5156-29.508 7.043-58.652 24.273-82.656zm-22.559 100.07c4.8008-0.38672 9.0234 3.1602 9.4648 7.957l1.3516 15.621c0.39062 4.8047-3.1602 9.0273-7.9648 9.4648l-133.84 11.594v0.003906c-2.3047 0.17188-4.5898-0.55078-6.3828-2.0195-4.5898-2.9414-3.4414-16.219-4.4414-21.566h0.003906c-0.40625-4.8086 3.1523-9.043 7.9648-9.4648zm-119.56-7.2109c-2.2148-12.035-8.4883-22.949-17.777-30.914-10.004-7.25-16.297-18.551-17.191-30.875-0.63672-11.453 0.24219-22.938 2.6133-34.16 6.6758-18.711 7.9102-38.93 3.5586-58.312l-21.16-80.145v0.003907c-1.0898-4.6289 1.7461-9.2734 6.3633-10.418 4.6172-1.1406 9.293 1.6445 10.488 6.2461l4.7578 19.449c0.023437 0.03125 17.023 70.906 17 71.078v-0.003907c0.53516 2.2617 1.9453 4.2148 3.9219 5.4336 1.9766 1.2188 4.3594 1.6016 6.6172 1.0625 2.2578-0.53516 4.2109-1.9492 5.4258-3.9297 1.2188-1.9766 1.5977-4.3555 1.0586-6.6133l-30.965-130c-0.91016-4.2109 1.6953-8.3867 5.8789-9.418 4.1875-1.0273 8.4297 1.4609 9.5781 5.6172 2.9297 11.477 25.469 96.945 28.98 110.64l-0.003906-0.003906c1.2969 4.5898 6.0234 7.2969 10.637 6.0898 4.6094-1.207 7.4102-5.8828 6.293-10.516l-32.531-124.36c-0.77344-2.9492-0.32812-6.0859 1.2383-8.7031 1.5664-2.6172 4.1172-4.4922 7.082-5.207 2.9648-0.71484 6.0938-0.20703 8.6758 1.4102 2.5859 1.6172 4.4141 4.207 5.0664 7.1875l6.3125 28.645 21.828 100.24h0.003906c1.0859 4.6562 5.7109 7.582 10.383 6.5625 4.6758-1.0195 7.6641-5.6016 6.7148-10.289l-21.828-100.23c-1.0664-5.4219 2.3398-10.715 7.7148-11.988 5.375-1.2773 10.797 1.9258 12.281 7.2461l29.383 114.29c3.3125 12.727-0.17578 26.258-9.2266 35.797l-11.152 11.816c-14.637 15.648-20.336 37.656-15.129 58.438 1.0156 4.6602 5.5703 7.6484 10.246 6.7266 4.6758-0.92188 7.7539-5.4141 6.9258-10.109l-0.70703-3.5977h-0.003906c-2.7734-14.215 1.4688-28.898 11.402-39.441l11.152-11.816-0.003906-0.003907c13.188-13.898 18.27-33.621 13.441-52.164l-2.9414-11.449c3.3828-7.7266 8.7773-14.402 15.617-19.332l14.848 56.723c3.6055 13.762 0.875 28.414-7.4492 39.949-24.344 29.289-36.852 66.625-35.066 104.67z"/>
  <use x="70" y="691.25" xlink:href="#l"/>
  <use x="102.109375" y="691.25" xlink:href="#e"/>
  <use x="123.683594" y="691.25" xlink:href="#b"/>
  <use x="153.355469" y="691.25" xlink:href="#a"/>
  <use x="182.878906" y="691.25" xlink:href="#d"/>
  <use x="203.792969" y="691.25" xlink:href="#b"/>
  <use x="233.464844" y="691.25" xlink:href="#h"/>
  <use x="280.011719" y="691.25" xlink:href="#g"/>
  <use x="311.328125" y="691.25" xlink:href="#c"/>
  <use x="355.078125" y="691.25" xlink:href="#f"/>
  <use x="386.589844" y="691.25" xlink:href="#b"/>
  <use x="416.261719" y="691.25" xlink:href="#k"/>
  <use x="447.40625" y="691.25" xlink:href="#d"/>
  <use x="468.320312" y="691.25" xlink:href="#c"/>
  <use x="496.839844" y="691.25" xlink:href="#a"/>
  <use x="541.59375" y="691.25" xlink:href="#j"/>
  <use x="557.871094" y="691.25" xlink:href="#e"/>
  <use x="579.449219" y="691.25" xlink:href="#i"/>
  <use x="625.035156" y="691.25" xlink:href="#a"/>
 </g>
</svg>
