<?xml version="1.0" standalone="no"?>
<!DOCTYPE svg PUBLIC "-//W3C//DTD SVG 20010904//EN"
 "http://www.w3.org/TR/2001/REC-SVG-20010904/DTD/svg10.dtd">
<svg version="1.0" xmlns="http://www.w3.org/2000/svg"
 width="512.000000pt" height="512.000000pt" viewBox="0 0 512.000000 512.000000"
 preserveAspectRatio="xMidYMid meet">

<g transform="translate(0.000000,512.000000) scale(0.100000,-0.100000)"
fill="#000000" stroke="none">
<path d="M2145 4740 l-381 -380 -480 0 -481 0 -21 -23 c-22 -23 -22 -24 -22
-502 l0 -479 -380 -381 c-350 -351 -380 -384 -380 -415 0 -31 30 -64 380 -415
l380 -381 0 -480 0 -481 23 -21 c23 -22 24 -22 502 -22 l479 0 381 -380 c351
-350 384 -380 415 -380 31 0 64 30 415 380 l381 380 480 0 481 0 21 23 c22 23
22 24 22 502 l0 479 380 381 c350 351 380 384 380 415 0 31 -30 64 -380 415
l-380 381 0 480 0 481 -23 21 c-23 21 -30 22 -276 22 l-252 0 -24 -25 c-14
-13 -25 -36 -25 -50 0 -14 11 -37 25 -50 24 -25 25 -25 225 -25 l200 0 0 -451
c0 -309 3 -457 11 -472 6 -12 169 -181 362 -374 l352 -353 -352 -353 c-193
-193 -356 -362 -362 -374 -8 -15 -11 -163 -11 -472 l0 -451 -451 0 c-309 0
-457 -3 -472 -11 -12 -6 -181 -169 -374 -362 l-353 -352 -352 352 c-194 193
-363 356 -375 362 -15 8 -163 11 -472 11 l-451 0 0 451 c0 309 -3 457 -11 472
-6 12 -169 181 -362 375 l-352 352 352 353 c193 193 356 362 362 374 8 15 11
163 11 472 l0 451 451 0 c309 0 457 3 472 11 12 6 181 169 375 362 l352 352
353 -352 c193 -193 362 -356 374 -362 12 -6 67 -11 123 -11 94 0 103 2 125 25
32 31 32 69 0 100 -21 22 -33 25 -102 25 l-77 0 -381 380 c-351 350 -384 380
-415 380 -31 0 -64 -30 -415 -380z"/>
<path d="M2240 4255 l-295 -295 -357 0 c-240 0 -365 -4 -381 -11 -14 -6 -30
-22 -36 -36 -7 -16 -11 -141 -11 -381 l0 -357 -295 -295 c-224 -225 -295 -302
-295 -320 0 -18 71 -95 295 -320 l295 -295 0 -357 c0 -240 4 -365 11 -381 17
-37 50 -47 150 -47 82 0 92 2 114 25 31 30 33 77 5 105 -15 15 -33 20 -75 20
l-55 0 0 347 0 347 -277 279 -278 279 57 52 c106 97 209 136 358 136 180 0
264 -44 465 -245 274 -274 524 -459 825 -610 377 -189 787 -298 1220 -323
l125 -7 3 -127 3 -128 -348 0 -347 0 -278 -277 -278 -278 -278 278 -278 277
-146 0 c-160 0 -180 -7 -194 -62 -5 -22 0 -33 24 -58 30 -30 31 -30 144 -30
l113 0 295 -295 c225 -224 302 -295 320 -295 18 0 95 71 320 295 l295 295 357
0 c240 0 365 4 381 11 14 6 30 22 36 36 7 16 11 141 11 381 l0 357 295 295
c224 225 295 302 295 320 0 18 -71 95 -295 320 l-295 295 0 357 c0 240 -4 365
-11 381 -6 14 -22 30 -36 36 -16 7 -141 11 -381 11 l-357 0 -295 295 c-225
224 -302 295 -320 295 -18 0 -95 -71 -320 -295z m600 -170 l276 -275 347 0
347 0 0 -346 0 -347 106 -107 105 -107 -108 -5 c-121 -5 -213 -32 -311 -90
-33 -19 -128 -104 -231 -206 -96 -94 -175 -171 -177 -169 -2 1 -9 34 -17 73
-40 191 -167 354 -343 440 -98 47 -143 43 -165 -13 -18 -49 5 -80 87 -118 172
-79 284 -253 284 -440 0 -51 -4 -65 -22 -82 -47 -43 -237 -163 -391 -247 l-67
-37 -88 48 c-119 64 -263 155 -333 209 l-59 45 0 62 c0 189 111 363 284 442
82 38 105 69 87 118 -22 56 -67 60 -165 13 -176 -86 -303 -249 -343 -440 -8
-39 -15 -72 -17 -73 -2 -2 -81 75 -177 169 -103 102 -198 187 -231 206 -98 58
-190 85 -311 90 l-108 5 105 107 106 107 0 347 0 346 347 0 347 0 276 275
c151 151 277 275 280 275 2 0 129 -124 280 -275z m1255 -1350 c80 -21 148 -60
215 -122 l55 -52 -277 -278 -278 -279 0 -142 0 -142 -63 0 c-162 0 -440 40
-651 95 -117 30 -303 91 -341 112 -10 6 16 26 88 68 220 130 436 301 642 510
147 148 198 186 305 222 79 27 216 31 305 8z"/>
<path d="M1860 3670 c-27 -27 -26 -81 1 -106 17 -15 40 -20 116 -22 106 -4
144 6 162 44 16 35 14 48 -10 78 -20 25 -23 26 -135 26 -101 0 -116 -2 -134
-20z"/>
<path d="M3000 3670 c-27 -27 -26 -81 1 -106 17 -16 40 -20 125 -22 l104 -4
30 30 c35 36 38 60 9 96 -20 25 -23 26 -135 26 -101 0 -116 -2 -134 -20z"/>
<path d="M1563 3394 c-26 -6 -63 -49 -63 -74 0 -10 9 -29 21 -44 20 -25 23
-26 135 -26 101 0 116 2 134 20 25 25 26 71 1 101 -17 21 -28 23 -112 25 -52
1 -104 0 -116 -2z"/>
<path d="M3361 3389 c-52 -21 -65 -69 -30 -113 20 -25 23 -26 135 -26 101 0
116 2 134 20 38 38 22 100 -31 119 -39 13 -175 13 -208 0z"/>
<path d="M2506 3368 c-25 -35 -22 -208 2 -239 27 -33 78 -30 109 5 20 24 23
37 23 115 0 74 -3 93 -21 115 -27 35 -90 37 -113 4z"/>
<path d="M2042 3247 c-32 -34 -27 -69 24 -158 33 -58 53 -81 71 -85 38 -10 76
7 92 41 13 28 12 34 -25 103 -21 41 -49 85 -61 98 -29 31 -73 31 -101 1z"/>
<path d="M2993 3255 c-29 -20 -103 -156 -103 -189 0 -40 34 -68 78 -64 40 3
65 32 118 136 23 45 25 56 15 81 -12 27 -47 51 -74 51 -7 0 -22 -7 -34 -15z"/>
<path d="M1713 2918 c-12 -6 -27 -24 -34 -41 -10 -24 -10 -34 2 -56 20 -35
145 -109 187 -110 57 -2 90 56 62 109 -11 20 -139 97 -173 105 -12 2 -32 -1
-44 -7z"/>
<path d="M3283 2881 c-86 -52 -103 -69 -103 -103 0 -41 43 -82 78 -75 34 7
163 81 180 104 33 45 -6 113 -64 113 -16 -1 -57 -18 -91 -39z"/>
<path d="M3768 2506 c-41 -31 -37 -113 7 -130 22 -8 148 -8 170 0 26 10 45 63
34 93 -16 41 -38 50 -119 50 -46 0 -82 -5 -92 -13z"/>
<path d="M3201 2094 c-53 -67 -2 -124 110 -124 81 0 119 28 119 86 0 48 -31
64 -124 64 -79 0 -86 -2 -105 -26z"/>
<path d="M1454 2217 c-35 -31 -38 -82 -5 -109 35 -27 173 -26 201 2 30 30 27
83 -6 109 -40 32 -152 30 -190 -2z"/>
<path d="M2025 1815 c-14 -13 -25 -36 -25 -50 0 -14 11 -37 25 -50 21 -22 33
-25 98 -25 91 0 127 21 127 75 0 54 -36 75 -127 75 -65 0 -77 -3 -98 -25z"/>
<path d="M1556 1609 c-33 -26 -36 -79 -6 -109 28 -28 166 -29 201 -2 33 27 30
78 -5 109 -38 32 -150 34 -190 2z"/>
<path d="M2419 1402 c-33 -27 -30 -78 5 -109 38 -32 150 -34 190 -2 33 26 36
79 6 109 -28 28 -166 29 -201 2z"/>
</g>
</svg>
