<?xml version="1.0" standalone="no"?>
<!DOCTYPE svg PUBLIC "-//W3C//DTD SVG 20010904//EN"
 "http://www.w3.org/TR/2001/REC-SVG-20010904/DTD/svg10.dtd">
<svg version="1.0" xmlns="http://www.w3.org/2000/svg"
 width="512.000000pt" height="512.000000pt" viewBox="0 0 512.000000 512.000000"
 preserveAspectRatio="xMidYMid meet">

<g transform="translate(0.000000,512.000000) scale(0.100000,-0.100000)"
fill="#000000" stroke="none">
<path d="M2145 4740 l-381 -380 -480 0 -481 0 -21 -23 c-22 -23 -22 -24 -22
-502 l0 -479 -380 -381 c-350 -351 -380 -384 -380 -415 0 -31 30 -64 380 -415
l380 -381 0 -480 0 -481 23 -21 c23 -22 24 -22 502 -22 l479 0 381 -380 c351
-350 384 -380 415 -380 31 0 64 30 415 380 l381 380 480 0 481 0 21 23 c22 23
22 24 22 502 l0 479 380 381 c350 351 380 384 380 415 0 31 -30 64 -380 415
l-380 381 0 480 0 481 -23 21 c-23 21 -30 22 -276 22 l-252 0 -24 -25 c-14
-13 -25 -36 -25 -50 0 -14 11 -37 25 -50 24 -25 25 -25 225 -25 l200 0 0 -451
c0 -309 3 -457 11 -472 6 -12 169 -181 362 -374 l352 -353 -352 -353 c-193
-193 -356 -362 -362 -374 -8 -15 -11 -163 -11 -472 l0 -451 -451 0 c-309 0
-457 -3 -472 -11 -12 -6 -181 -169 -374 -362 l-353 -352 -352 352 c-194 193
-363 356 -375 362 -15 8 -163 11 -472 11 l-451 0 0 451 c0 309 -3 457 -11 472
-6 12 -169 181 -362 375 l-352 352 352 353 c193 193 356 362 362 374 8 15 11
163 11 472 l0 451 451 0 c309 0 457 3 472 11 12 6 181 169 375 362 l352 352
353 -352 c193 -193 362 -356 374 -362 12 -6 67 -11 123 -11 94 0 103 2 125 25
32 31 32 69 0 100 -21 22 -33 25 -102 25 l-77 0 -381 380 c-351 350 -384 380
-415 380 -31 0 -64 -30 -415 -380z"/>
<path d="M2240 4255 l-295 -295 -357 0 c-240 0 -365 -4 -381 -11 -14 -6 -30
-22 -36 -36 -7 -16 -11 -141 -11 -381 l0 -357 -295 -295 c-224 -225 -295 -302
-295 -320 0 -18 71 -95 295 -320 l295 -295 0 -357 c0 -240 4 -365 11 -381 17
-37 50 -47 150 -47 82 0 92 2 114 25 31 30 33 77 5 105 -15 15 -33 20 -75 20
l-55 0 0 347 0 347 -277 279 -278 279 57 52 c106 97 209 136 358 136 179 0
265 -45 460 -240 80 -80 186 -180 235 -222 515 -432 1134 -676 1815 -716 l125
-7 3 -127 3 -128 -348 0 -347 0 -278 -277 -278 -278 -278 278 -278 277 -146 0
c-160 0 -180 -7 -194 -62 -5 -22 0 -33 24 -58 30 -30 31 -30 144 -30 l113 0
295 -295 c225 -224 302 -295 320 -295 18 0 95 71 320 295 l295 295 357 0 c240
0 365 4 381 11 14 6 30 22 36 36 7 16 11 141 11 381 l0 357 295 295 c224 225
295 302 295 320 0 18 -71 95 -295 320 l-295 295 0 357 c0 240 -4 365 -11 381
-6 14 -22 30 -36 36 -16 7 -141 11 -381 11 l-357 0 -295 295 c-225 224 -302
295 -320 295 -18 0 -95 -71 -320 -295z m600 -170 l276 -275 347 0 347 0 0
-346 0 -347 106 -107 105 -107 -108 -5 c-121 -5 -213 -32 -311 -90 -33 -19
-122 -98 -212 -187 -247 -245 -460 -408 -728 -556 l-103 -56 -67 37 c-307 169
-493 310 -762 576 -89 87 -180 167 -212 186 -98 58 -190 85 -311 90 l-108 5
105 107 106 107 0 347 0 346 347 0 347 0 276 275 c151 151 277 275 280 275 2
0 129 -124 280 -275z m1255 -1350 c80 -21 148 -60 215 -122 l55 -52 -277 -278
-278 -279 0 -142 0 -142 -63 0 c-235 0 -632 74 -880 164 -140 51 -137 46 -59
90 222 127 458 311 669 522 159 160 206 195 313 231 79 27 216 31 305 8z"/>
<path d="M2355 3840 c-254 -39 -469 -224 -552 -475 -22 -68 -26 -99 -27 -202
-1 -109 1 -125 20 -150 30 -41 84 -44 113 -7 20 25 21 35 15 108 -16 217 102
430 289 520 40 19 83 38 97 42 22 6 20 2 -18 -43 -112 -134 -150 -309 -107
-488 15 -60 79 -167 133 -221 107 -107 201 -145 382 -153 l125 -6 -50 -37
c-67 -50 -160 -86 -254 -100 -141 -20 -296 29 -418 130 -70 59 -101 65 -138
27 -40 -39 -33 -72 29 -130 142 -134 358 -203 547 -176 168 25 280 81 402 202
l88 87 112 4 c89 3 120 8 152 25 204 108 164 409 -61 457 -19 4 -44 23 -67 50
-22 27 -61 57 -98 75 -53 26 -74 31 -135 31 -105 0 -169 -27 -244 -101 -33
-32 -68 -59 -78 -59 -10 0 -39 -13 -65 -29 -49 -32 -107 -117 -107 -158 0 -37
-17 -35 -49 4 -69 84 -94 238 -57 343 49 136 194 250 316 250 41 0 80 35 80
71 0 17 -5 39 -10 49 -24 45 -236 79 -365 60z m655 -598 c18 -10 50 -43 70
-73 35 -53 36 -54 94 -59 48 -4 62 -10 82 -33 32 -37 32 -87 0 -124 l-24 -28
-290 -3 -289 -3 -31 26 c-38 32 -47 67 -27 109 18 37 50 56 96 56 31 0 63 26
103 84 43 64 143 86 216 48z"/>
<path d="M3768 2506 c-41 -31 -37 -113 7 -130 22 -8 148 -8 170 0 26 10 45 63
34 93 -16 41 -38 50 -119 50 -46 0 -82 -5 -92 -13z"/>
<path d="M3201 2094 c-53 -67 -2 -124 110 -124 81 0 119 28 119 86 0 48 -31
64 -124 64 -79 0 -86 -2 -105 -26z"/>
<path d="M1454 2217 c-35 -31 -38 -82 -5 -109 35 -27 173 -26 201 2 30 30 27
83 -6 109 -40 32 -152 30 -190 -2z"/>
<path d="M2025 1815 c-14 -13 -25 -36 -25 -50 0 -14 11 -37 25 -50 21 -22 33
-25 98 -25 91 0 127 21 127 75 0 54 -36 75 -127 75 -65 0 -77 -3 -98 -25z"/>
<path d="M1556 1609 c-33 -26 -36 -79 -6 -109 28 -28 166 -29 201 -2 33 27 30
78 -5 109 -38 32 -150 34 -190 2z"/>
<path d="M2419 1402 c-33 -27 -30 -78 5 -109 38 -32 150 -34 190 -2 33 26 36
79 6 109 -28 28 -166 29 -201 2z"/>
</g>
</svg>
