<?xml version="1.0" standalone="no"?>
<!DOCTYPE svg PUBLIC "-//W3C//DTD SVG 20010904//EN"
 "http://www.w3.org/TR/2001/REC-SVG-20010904/DTD/svg10.dtd">
<svg version="1.0" xmlns="http://www.w3.org/2000/svg"
 width="64.000000pt" height="64.000000pt" viewBox="0 0 64.000000 64.000000"
 preserveAspectRatio="xMidYMid meet">

<g transform="translate(0.000000,64.000000) scale(0.100000,-0.100000)"
fill="#000000" stroke="none">
<path d="M271 583 c-50 -26 -76 -66 -75 -116 1 -57 37 -124 80 -149 l34 -20 0
-89 c0 -53 4 -89 10 -89 6 0 10 36 10 89 l0 89 34 20 c64 38 100 142 69 201
-35 68 -103 95 -162 64z m125 -37 c46 -46 47 -101 4 -169 -49 -77 -111 -77
-160 0 -43 68 -42 123 4 169 28 28 42 34 76 34 34 0 48 -6 76 -34z"/>
<path d="M279 545 c-14 -8 -32 -28 -39 -45 -17 -42 5 -91 49 -110 67 -28 139
43 111 110 -12 30 -55 60 -82 60 -7 -1 -25 -7 -39 -15z m91 -25 c11 -11 20
-33 20 -50 0 -17 -9 -39 -20 -50 -43 -43 -120 -11 -120 50 0 38 32 70 70 70
17 0 39 -9 50 -20z"/>
<path d="M252 150 c-75 -17 -62 -52 23 -65 84 -12 187 17 159 45 -14 14 -84
31 -84 20 0 -4 16 -11 35 -14 71 -14 30 -36 -65 -36 -95 0 -136 22 -65 36 19
3 35 10 35 15 0 5 -1 9 -2 8 -2 -1 -18 -5 -36 -9z"/>
</g>
</svg>
