<?xml version="1.0" encoding="UTF-8"?>
<svg width="700pt" height="700pt" version="1.1" viewBox="0 0 700 700" xmlns="http://www.w3.org/2000/svg" xmlns:xlink="http://www.w3.org/1999/xlink">
 <defs>
  <symbol id="g" overflow="visible">
   <path d="m3.6562-0.21875c-0.1875 0.09375-0.38672 0.16797-0.59375 0.21875-0.19922 0.050781-0.40625 0.078125-0.625 0.078125-0.66797 0-1.1992-0.17969-1.5938-0.54688-0.38672-0.375-0.57812-0.87891-0.57812-1.5156 0-0.64453 0.19141-1.1484 0.57812-1.5156 0.39453-0.375 0.92578-0.5625 1.5938-0.5625 0.21875 0 0.42578 0.027344 0.625 0.078125 0.20703 0.054687 0.40625 0.125 0.59375 0.21875v0.82812c-0.1875-0.125-0.375-0.21875-0.5625-0.28125-0.17969-0.0625-0.37109-0.09375-0.57812-0.09375-0.36719 0-0.65625 0.12109-0.875 0.35938-0.21094 0.23047-0.3125 0.55469-0.3125 0.96875 0 0.40625 0.10156 0.73047 0.3125 0.96875 0.21875 0.23047 0.50781 0.34375 0.875 0.34375 0.20703 0 0.39844-0.023437 0.57812-0.078125 0.1875-0.0625 0.375-0.16016 0.5625-0.29688z"/>
  </symbol>
  <symbol id="c" overflow="visible">
   <path d="m2.6875-2.1719c-0.085938-0.039063-0.16797-0.070313-0.25-0.09375-0.085938-0.019531-0.16797-0.03125-0.25-0.03125-0.25 0-0.44531 0.085937-0.57812 0.25-0.125 0.15625-0.1875 0.38281-0.1875 0.67188v1.375h-0.96875v-2.9844h0.96875v0.48438c0.11328-0.19531 0.25-0.33594 0.40625-0.42188 0.16406-0.09375 0.35938-0.14062 0.57812-0.14062h0.10938c0.039063 0 0.09375 0.007812 0.15625 0.015625z"/>
  </symbol>
  <symbol id="a" overflow="visible">
   <path d="m3.4375-1.5v0.26562h-2.2344c0.03125 0.23047 0.11328 0.40234 0.25 0.51562 0.13281 0.10547 0.32812 0.15625 0.57812 0.15625 0.20703 0 0.41406-0.023438 0.625-0.078125 0.20703-0.0625 0.42188-0.15625 0.64062-0.28125v0.73438c-0.21875 0.09375-0.44531 0.16406-0.67188 0.20312-0.23047 0.039062-0.45312 0.0625-0.67188 0.0625-0.54297 0-0.96484-0.13281-1.2656-0.40625-0.30469-0.28125-0.45312-0.67188-0.45312-1.1719 0-0.47656 0.14453-0.85938 0.4375-1.1406 0.30078-0.28125 0.70703-0.42188 1.2188-0.42188 0.46875 0 0.84375 0.14062 1.125 0.42188s0.42188 0.66406 0.42188 1.1406zm-0.96875-0.32812c0-0.17578-0.058594-0.31641-0.17188-0.42188-0.10547-0.11328-0.24219-0.17188-0.40625-0.17188-0.1875 0-0.33984 0.054687-0.45312 0.15625-0.11719 0.10547-0.1875 0.25-0.21875 0.4375z"/>
  </symbol>
  <symbol id="f" overflow="visible">
   <path d="m1.7969-1.3438c-0.19922 0-0.35156 0.039062-0.45312 0.10938-0.09375 0.0625-0.14062 0.16406-0.14062 0.29688 0 0.11719 0.035156 0.21094 0.10938 0.28125 0.082031 0.0625 0.19531 0.09375 0.34375 0.09375 0.17578 0 0.32812-0.0625 0.45312-0.1875s0.1875-0.28516 0.1875-0.48438v-0.10938zm1.4688-0.35938v1.7031h-0.96875v-0.4375c-0.125 0.17969-0.27344 0.30859-0.4375 0.39062-0.15625 0.082031-0.35156 0.125-0.57812 0.125-0.3125 0-0.57031-0.085938-0.76562-0.26562-0.1875-0.1875-0.28125-0.42188-0.28125-0.70312 0-0.35156 0.11719-0.61328 0.35938-0.78125 0.23828-0.16406 0.61719-0.25 1.1406-0.25h0.5625v-0.0625c0-0.15625-0.0625-0.26562-0.1875-0.32812-0.11719-0.070312-0.29688-0.10938-0.54688-0.10938-0.21094 0-0.40234 0.023437-0.57812 0.0625-0.17969 0.042969-0.33984 0.10156-0.48438 0.17188v-0.71875c0.19531-0.050781 0.39844-0.085938 0.60938-0.10938 0.20703-0.03125 0.41406-0.046875 0.625-0.046875 0.53906 0 0.92969 0.10938 1.1719 0.32812 0.23828 0.21094 0.35938 0.55469 0.35938 1.0312z"/>
  </symbol>
  <symbol id="b" overflow="visible">
   <path d="m1.5-3.8438v0.85938h0.98438v0.67188h-0.98438v1.2812c0 0.13672 0.023438 0.23047 0.078125 0.28125 0.0625 0.042969 0.17578 0.0625 0.34375 0.0625h0.48438v0.6875h-0.8125c-0.38672 0-0.65625-0.078125-0.8125-0.23438s-0.23438-0.42188-0.23438-0.79688v-1.2812h-0.46875v-0.67188h0.46875v-0.85938z"/>
  </symbol>
  <symbol id="k" overflow="visible">
   <path d="m2.5-2.5469v-1.6094h0.95312v4.1562h-0.95312v-0.4375c-0.13672 0.17969-0.28125 0.30859-0.4375 0.39062-0.15625 0.082031-0.33984 0.125-0.54688 0.125-0.375 0-0.68359-0.14453-0.92188-0.4375-0.23047-0.28906-0.34375-0.67188-0.34375-1.1406 0-0.45703 0.11328-0.83203 0.34375-1.125 0.23828-0.28906 0.54688-0.4375 0.92188-0.4375 0.19531 0 0.375 0.042969 0.53125 0.125 0.16406 0.085938 0.31641 0.21484 0.45312 0.39062zm-0.64062 1.9375c0.20703 0 0.36328-0.070313 0.46875-0.21875 0.11328-0.15625 0.17188-0.37891 0.17188-0.67188 0-0.28125-0.058594-0.49219-0.17188-0.64062-0.10547-0.15625-0.26172-0.23438-0.46875-0.23438-0.19922 0-0.35547 0.078125-0.46875 0.23438-0.10547 0.14844-0.15625 0.35938-0.15625 0.64062 0 0.29297 0.050781 0.51562 0.15625 0.67188 0.11328 0.14844 0.26953 0.21875 0.46875 0.21875z"/>
  </symbol>
  <symbol id="j" overflow="visible">
   <path d="m2.0469-0.60938c0.20703 0 0.36328-0.070313 0.46875-0.21875 0.11328-0.15625 0.17188-0.37891 0.17188-0.67188 0-0.28125-0.058594-0.49219-0.17188-0.64062-0.10547-0.15625-0.26172-0.23438-0.46875-0.23438-0.19922 0-0.35547 0.078125-0.46875 0.23438-0.10547 0.14844-0.15625 0.35938-0.15625 0.64062 0 0.29297 0.050781 0.51562 0.15625 0.67188 0.11328 0.14844 0.26953 0.21875 0.46875 0.21875zm-0.625-1.9375c0.125-0.17578 0.26562-0.30469 0.42188-0.39062 0.16406-0.082031 0.35156-0.125 0.5625-0.125 0.36328 0 0.66406 0.14844 0.90625 0.4375 0.23828 0.29297 0.35938 0.66797 0.35938 1.125 0 0.46875-0.12109 0.85156-0.35938 1.1406-0.24219 0.29297-0.54297 0.4375-0.90625 0.4375-0.21094 0-0.39844-0.042969-0.5625-0.125-0.15625-0.082031-0.29688-0.21094-0.42188-0.39062v0.4375h-0.96875v-4.1562h0.96875z"/>
  </symbol>
  <symbol id="i" overflow="visible">
   <path d="m0.0625-2.9844h0.95312l0.8125 2.0156 0.6875-2.0156h0.95312l-1.2656 3.2656c-0.125 0.33203-0.27344 0.56641-0.4375 0.70312-0.16797 0.13281-0.39062 0.20312-0.67188 0.20312h-0.54688v-0.64062h0.29688c0.16406 0 0.28516-0.027344 0.35938-0.078125 0.070313-0.054688 0.12891-0.14062 0.17188-0.26562l0.03125-0.09375z"/>
  </symbol>
  <symbol id="h" overflow="visible">
   <path d="m3.2812-3.8594v0.84375c-0.21875-0.10156-0.43359-0.17578-0.64062-0.21875-0.21094-0.050781-0.40625-0.078125-0.59375-0.078125-0.25 0-0.43359 0.039062-0.54688 0.10938-0.11719 0.0625-0.17188 0.16797-0.17188 0.3125 0 0.10547 0.035156 0.1875 0.10938 0.25 0.082031 0.054687 0.22656 0.10156 0.4375 0.14062l0.4375 0.09375c0.44531 0.09375 0.75781 0.23047 0.9375 0.40625 0.1875 0.17969 0.28125 0.4375 0.28125 0.78125 0 0.4375-0.13281 0.76562-0.39062 0.98438-0.26172 0.21094-0.65625 0.3125-1.1875 0.3125-0.25 0-0.50781-0.027344-0.76562-0.078125-0.25-0.039062-0.50781-0.10938-0.76562-0.20312v-0.875c0.25781 0.13672 0.50391 0.24219 0.73438 0.3125 0.23828 0.0625 0.47266 0.09375 0.70312 0.09375 0.21875 0 0.38281-0.035156 0.5-0.10938 0.125-0.070312 0.1875-0.17578 0.1875-0.3125 0-0.125-0.042969-0.21875-0.125-0.28125-0.085937-0.070312-0.24609-0.13281-0.48438-0.1875l-0.39062-0.09375c-0.40625-0.082031-0.70312-0.21875-0.89062-0.40625-0.17969-0.1875-0.26562-0.44141-0.26562-0.76562 0-0.39453 0.125-0.69531 0.375-0.90625 0.25781-0.21875 0.62891-0.32812 1.1094-0.32812 0.22656 0 0.45703 0.023438 0.6875 0.0625 0.22656 0.03125 0.46875 0.078125 0.71875 0.14062z"/>
  </symbol>
  <symbol id="e" overflow="visible">
   <path d="m3.4688-1.8281v1.8281h-0.96875v-1.3906c0-0.25781-0.007812-0.4375-0.015625-0.53125-0.011719-0.10156-0.03125-0.17578-0.0625-0.21875-0.03125-0.0625-0.085937-0.10938-0.15625-0.14062-0.0625-0.039062-0.13281-0.0625-0.20312-0.0625-0.21094 0-0.37109 0.078125-0.48438 0.23438-0.10547 0.15625-0.15625 0.37109-0.15625 0.64062v1.4688h-0.96875v-4.1562h0.96875v1.6094c0.13281-0.17578 0.28516-0.30469 0.45312-0.39062 0.16406-0.082031 0.34375-0.125 0.53125-0.125 0.34375 0 0.60156 0.10938 0.78125 0.32812 0.1875 0.21094 0.28125 0.51172 0.28125 0.90625z"/>
  </symbol>
  <symbol id="v" overflow="visible">
   <path d="m0.45312-4.1562h0.96875v2.2656l1.0938-1.0938h1.1094l-1.4531 1.3594 1.5625 1.625h-1.1562l-1.1562-1.25v1.25h-0.96875z"/>
  </symbol>
  <symbol id="u" overflow="visible">
   <path d="m0.45312-4.1562h0.96875v4.1562h-0.96875z"/>
  </symbol>
  <symbol id="t" overflow="visible">
   <path d="m0.5625-1.0312h0.95312v1.0312h-0.95312z"/>
  </symbol>
  <symbol id="s" overflow="visible">
   <path d="m2.4219-4.1562v0.625h-0.51562c-0.13672 0-0.23438 0.027344-0.29688 0.078125-0.054687 0.054687-0.078125 0.13672-0.078125 0.25v0.21875h0.82812v0.67188h-0.82812v2.3125h-0.95312v-2.3125h-0.46875v-0.67188h0.46875v-0.21875c0-0.32031 0.085937-0.5625 0.26562-0.71875 0.1875-0.15625 0.47266-0.23438 0.85938-0.23438z"/>
  </symbol>
  <symbol id="d" overflow="visible">
   <path d="m1.875-2.375c-0.21094 0-0.37109 0.078125-0.48438 0.23438-0.10547 0.14844-0.15625 0.35938-0.15625 0.64062 0 0.29297 0.050781 0.51562 0.15625 0.67188 0.11328 0.14844 0.27344 0.21875 0.48438 0.21875 0.20703 0 0.36719-0.070313 0.48438-0.21875 0.11328-0.15625 0.17188-0.37891 0.17188-0.67188 0-0.28125-0.058594-0.49219-0.17188-0.64062-0.11719-0.15625-0.27734-0.23438-0.48438-0.23438zm0-0.6875c0.51953 0 0.92188 0.14062 1.2031 0.42188 0.28906 0.27344 0.4375 0.65234 0.4375 1.1406 0 0.5-0.14844 0.89062-0.4375 1.1719-0.28125 0.27344-0.68359 0.40625-1.2031 0.40625-0.51172 0-0.91406-0.13281-1.2031-0.40625-0.29297-0.28125-0.4375-0.67188-0.4375-1.1719 0-0.48828 0.14453-0.86719 0.4375-1.1406 0.28906-0.28125 0.69141-0.42188 1.2031-0.42188z"/>
  </symbol>
  <symbol id="r" overflow="visible">
   <path d="m3.2344-2.5c0.11328-0.17578 0.25391-0.3125 0.42188-0.40625 0.16406-0.10156 0.35156-0.15625 0.5625-0.15625 0.33203 0 0.58594 0.10938 0.76562 0.32812 0.1875 0.21094 0.28125 0.51172 0.28125 0.90625v1.8281h-0.96875v-1.5625c0.007813-0.019531 0.015625-0.039062 0.015625-0.0625v-0.10938c0-0.21875-0.03125-0.375-0.09375-0.46875s-0.16406-0.14062-0.29688-0.14062c-0.1875 0-0.33594 0.078125-0.4375 0.23438-0.09375 0.14844-0.14062 0.35938-0.14062 0.64062v1.4688h-0.96875v-1.5625c0-0.33203-0.03125-0.54688-0.09375-0.64062-0.054688-0.09375-0.15234-0.14062-0.29688-0.14062-0.17969 0-0.32031 0.078125-0.42188 0.23438-0.09375 0.14844-0.14062 0.35938-0.14062 0.64062v1.4688h-0.96875v-2.9844h0.96875v0.4375c0.11328-0.17578 0.24219-0.30469 0.39062-0.39062 0.15625-0.082031 0.32812-0.125 0.51562-0.125 0.20703 0 0.39062 0.054688 0.54688 0.15625 0.15625 0.09375 0.27344 0.23047 0.35938 0.40625z"/>
  </symbol>
  <symbol id="q" overflow="visible">
   <path d="m0.5-3.9844h1.1562l1.4375 2.7344v-2.7344h0.98438v3.9844h-1.1562l-1.4375-2.7344v2.7344h-0.98438z"/>
  </symbol>
  <symbol id="p" overflow="visible">
   <path d="m0.42188-1.1719v-1.8125h0.96875v0.29688 0.60938 0.48438c0 0.24219 0.003906 0.41797 0.015625 0.53125 0.007812 0.10547 0.03125 0.17969 0.0625 0.21875 0.039062 0.0625 0.09375 0.11719 0.15625 0.15625 0.0625 0.03125 0.13281 0.046875 0.21875 0.046875 0.19531 0 0.35156-0.078125 0.46875-0.23438 0.11328-0.15625 0.17188-0.36719 0.17188-0.64062v-1.4688h0.95312v2.9844h-0.95312v-0.4375c-0.14844 0.17969-0.30469 0.30859-0.46875 0.39062-0.15625 0.082031-0.33594 0.125-0.53125 0.125-0.34375 0-0.60938-0.10156-0.79688-0.3125-0.17969-0.21875-0.26562-0.53125-0.26562-0.9375z"/>
  </symbol>
  <symbol id="o" overflow="visible">
   <path d="m3.4688-1.8281v1.8281h-0.96875v-1.3906c0-0.25781-0.007812-0.4375-0.015625-0.53125-0.011719-0.10156-0.03125-0.17578-0.0625-0.21875-0.03125-0.0625-0.085937-0.10938-0.15625-0.14062-0.0625-0.039062-0.13281-0.0625-0.20312-0.0625-0.21094 0-0.37109 0.078125-0.48438 0.23438-0.10547 0.15625-0.15625 0.37109-0.15625 0.64062v1.4688h-0.96875v-2.9844h0.96875v0.4375c0.13281-0.17578 0.28516-0.30469 0.45312-0.39062 0.16406-0.082031 0.34375-0.125 0.53125-0.125 0.34375 0 0.60156 0.10938 0.78125 0.32812 0.1875 0.21094 0.28125 0.51172 0.28125 0.90625z"/>
  </symbol>
  <symbol id="n" overflow="visible">
   <path d="m0.5-3.9844h1.7031c0.50781 0 0.89844 0.11719 1.1719 0.34375 0.26953 0.21875 0.40625 0.53906 0.40625 0.95312 0 0.41797-0.13672 0.74219-0.40625 0.96875-0.27344 0.21875-0.66406 0.32812-1.1719 0.32812h-0.67188v1.3906h-1.0312zm1.0312 0.75v1.1094h0.5625c0.19531 0 0.34766-0.046875 0.45312-0.14062 0.11328-0.10156 0.17188-0.24219 0.17188-0.42188 0-0.17578-0.058594-0.3125-0.17188-0.40625-0.10547-0.09375-0.25781-0.14062-0.45312-0.14062z"/>
  </symbol>
  <symbol id="m" overflow="visible">
   <path d="m0.45312-2.9844h0.96875v2.9375c0 0.39453-0.10156 0.69531-0.29688 0.90625-0.1875 0.21875-0.46484 0.32812-0.82812 0.32812h-0.48438v-0.64062h0.17188c0.17578 0 0.29688-0.042969 0.35938-0.125 0.070312-0.074219 0.10938-0.23047 0.10938-0.46875zm0-1.1719h0.96875v0.78125h-0.96875z"/>
  </symbol>
  <symbol id="l" overflow="visible">
   <path d="m2.875-2.8906v0.76562c-0.125-0.082031-0.25781-0.14453-0.39062-0.1875-0.13672-0.039062-0.27344-0.0625-0.40625-0.0625-0.27344 0-0.48047 0.078125-0.625 0.23438-0.14844 0.15625-0.21875 0.37109-0.21875 0.64062 0 0.28125 0.070313 0.5 0.21875 0.65625 0.14453 0.15625 0.35156 0.23438 0.625 0.23438 0.14453 0 0.28516-0.019531 0.42188-0.0625 0.13281-0.039063 0.25781-0.10938 0.375-0.20312v0.78125c-0.14844 0.0625-0.29688 0.10156-0.45312 0.125-0.15625 0.03125-0.3125 0.046875-0.46875 0.046875-0.54297 0-0.96484-0.13281-1.2656-0.40625-0.30469-0.28125-0.45312-0.67188-0.45312-1.1719 0-0.48828 0.14844-0.86719 0.45312-1.1406 0.30078-0.28125 0.72266-0.42188 1.2656-0.42188 0.15625 0 0.3125 0.015625 0.46875 0.046875 0.15625 0.023437 0.30469 0.0625 0.45312 0.125z"/>
  </symbol>
 </defs>
 <g>
  <path d="m588.5 205.23c-0.4375-3.4336-3.3594-6.0039-6.8164-6.0039h-147.14c-49.133-63.621-118.93-72.258-155.6-71.785-0.76562-0.11328-1.5352-0.13672-2.3086 0.011719-13.586 0.31641-22.164 1.7891-22.398 1.8438-38.438 5.3242-61.602 19.066-68.848 40.871-3.0625 9.2109-2.9102 19.07-0.77344 29.059h-66.297c-3.4609 0-6.3828 2.5703-6.8242 6.0039l-28.055 219.66c-0.24219 1.9648 0.35938 3.9297 1.6641 5.4258 1.3086 1.4766 3.1914 2.3359 5.1641 2.3359h519.47c1.9805 0 3.8633-0.85547 5.1562-2.3359 1.3086-1.4922 1.9141-3.4609 1.6641-5.4258zm-146.73 31.453 4.6406 5.6914c-3.543 6.8164-13.938 22.062-37.043 25.164l-3.9805 0.09375c-0.21484-0.003906-0.41406-0.003906-0.625 0.015626l-6.0625 0.14062-0.81641-7.4961c23.078-2.375 36.684-14.418 43.887-23.609zm14.68 34.41c-0.34375 0.29688-0.91797 0.38672-1.2188 0.72266-2.2852 2.5273-3.2422 5.918-2.6875 9.5469 0.57031 3.6875 3.7969 6.0859 7.6719 5.6328 3.0898-0.40234 5.4258-2.9062 5.875-5.875 0.80469-0.15234 2.082-0.26953 4.1797-0.15234 3.8789 0.20312 7.6562 1.082 11.215 2.6289 6.4297 2.7695 9.6367 6.6055 8.9844 8.8906-0.51953 1.5938-2.25 2.5039-3.8945 2.1484l-18.672-4.3828c-3.6758-0.84766-7.2695 1.3438-8.2266 4.918l-2.1484 8.043c-0.48828 1.8477-0.18359 3.8125 0.82422 5.4258 1.0078 1.6289 2.6523 2.7539 4.5352 3.1055 4.6523 0.90625 14.492 5.5391 20.656 10.41 5.4453 4.2969 11.203 7.1758 17.074 9.3594-3.6445 9.0508-6.3789 17.816-8.0586 25.961-2.0234-1.0078-4.25-2.1758-6.7656-3.7031-3.3906-2.0664-7.3867-2.7383-11.352-1.7969l-12.746 2.7695c0.003906-0.019532-0.015625-0.039063-0.011719-0.058594 0.10156-1.2266-0.21875-2.4023-0.74219-3.4961-0.12109-0.25-0.23828-0.46094-0.39062-0.69922-0.64062-1.0078-1.4531-1.918-2.5977-2.5l-5.0703-2.5703c-0.63672-0.33594-1.3281-0.55469-2.0156-0.65625 0.25-4.0625 0.25-5.457 0.050781-6.6992-0.6875-3.7617-5.1562-6.8008-8.7812-6.0938-0.87109 0.15234-1.7109 0.48828-2.4688 0.95703-0.77344-1.1406-2-2.2656-4.0117-3.0898l-6.5664-3.2422c-2.0156-0.95703-2.8867-3.4102-1.9492-5.4258l3.9453-8.3242c4.4922-7.3438 9.8125-13.207 15.852-17.387 3.125-2.1641 3.9141-6.4492 1.7461-9.5703-2.1836-3.1133-6.4492-3.8867-9.5703-1.7461-1.7812 1.2344-3.3164 2.9375-4.9883 4.3789-1.7773-4.2031-4.5781-7.9805-8.7461-10.367l-0.67969-0.40625c14.684-5.1953 23.855-14.25 29.305-21.809 0.41406 0.24219 0.83203 0.46875 1.25 0.69922-1.0156 5.3633-0.28125 10.352 1.1953 14.453zm51.789 43.543c-0.75 1.4609-1.3281 2.9023-2.0352 4.3594-4.8125-1.6641-9.5625-4.0117-14.137-7.6172-1.2422-0.99219-2.6016-1.9648-4.0312-2.9219 7.0039-0.30078 13.281-4.9023 15.684-12.309 2.8203-9.6875-3.7773-19.578-16.773-25.18-5.0547-2.1914-10.43-3.4492-15.969-3.7344-0.47266-0.027344-0.76172 0.11719-1.2188 0.10938-1.3594-3.0039-2.4961-7.9609 1.3008-13.582 8.1289 6.3203 20.199 9.2539 42.918 14.77l4.4336 1.082c6.6445 1.6172 11.992 3.8516 16.172 6.5938-9.3633 9.9727-18.543 23.195-26.344 38.43zm37.75-30.422c18.539 12.152 25.25 37.008 14.59 57.793-5.5234 10.797-14.793 18.84-26.094 22.652-9.6719 3.2539-19.797 2.8867-29.074-0.62891 2.0898-12.715 7.3125-28.004 15.07-43.113 7.5156-14.691 16.633-27.613 25.508-36.703zm-112.46-62.898 0.89453 1.7656c-3.6758 6.4062-16.113 23.637-44.215 23.867-1.9492 0.015625-3.7969 0.85547-5.0898 2.3086-1.293 1.4531-1.9141 3.3828-1.6953 5.3164l1.4805 13.543-23.398 0.55469-13.973-19.746c-2.1836-3.0977-6.4961-3.8281-9.5859-1.6445-3.1055 2.1992-3.8359 6.4922-1.6445 9.5859l57.102 80.691-16.406 16.457c-15.758-19.328-64.926-79.645-67.957-83.496-6.6758-8.4961-9.4727-15.816-8.0781-21.176 1.7461-6.707 9.9414-10.133 13.594-11.68l37.395-17.18c7.1953-3.3086 13.609-7.8828 19.066-13.617 2.6367-2.7461 2.5195-7.1016-0.21875-9.7227-2.7695-2.6094-7.1016-2.5352-9.7305 0.23438-4.2578 4.457-9.2617 8.0352-14.859 10.613l-37.926 17.395c-1.6836 0.70312-3.0664 1.5469-4.5508 2.3477-2.6133-4.5508-5.3633-8.9609-8.25-13.078 13.871-25.141 1.9531-57.367-6.0312-73.715 38.527 1.0977 102.16 13.957 144.08 80.375zm-35.023 130.6 8.4414 6.5117c0.50391 0.40234 1.0586 0.72266 1.6641 0.95703 13.383 5.3242 18.941 7.5742 21.141 8.4648 2.5352 2.7891 8.8164 9.707 9.7383 10.512 0.40234 0.37109 0.78906 0.73828 1.1758 1.0898-0.94141 0.32031-1.8281 0.83984-2.6016 1.5625-0.85938 0.82812-1.3633 1.8438-1.6992 2.9102-1.7148-0.94531-3.7773-1.2305-5.7578-0.45703-0.67187 0.26172-0.91406 0.94531-1.4453 1.375-0.16406 0.12109-0.36328 0.16406-0.51953 0.30469-0.21484 0.19141-0.3125 0.45312-0.5 0.66406-0.39453 0.47656-1.0781 0.70703-1.332 1.2656l-34.551-28.902zm-200.05-177.42c5.457-16.414 24.859-27.035 58-31.637 1.043-0.19141 7.6055-1.2773 17.547-1.7812 5.2656 9.5547 19.469 38.629 11.996 61.113-10.137-12.398-18.984-20.672-19.605-21.238-2.7969-2.5781-7.1602-2.4102-9.7148 0.41016-2.5703 2.7969-2.3828 7.1445 0.41016 9.7148 0.23047 0.21484 21.945 20.477 35.707 45.27-2.375 2.8906-4.2344 6.0117-5.1484 9.5273-2.5547 9.8047 1 20.957 10.57 33.129 1.2539 1.5938 10.41 12.863 21.785 26.84 1.2773 6.957-0.34375 14.285-4.6914 20.27-4.582 6.2969-11.402 10.141-18.941 10.812l-102.56 5.2266c4.4414-26.352-2.7852-44.184-10.141-54.703l56.57-1.8203c0.73828 0.74219 1.5234 1.5469 2.207 2.2227l12.945 14.684c1.3516 1.543 3.25 2.3359 5.1562 2.3359 1.6211 0 3.2422-0.57031 4.5508-1.7305 2.8477-2.5039 3.125-6.8516 0.60547-9.707l-13.266-15.027c-1.4922-1.4766-2.9492-3.0977-4.4336-4.625-0.082031-0.085937-0.15234-0.16797-0.24219-0.25-30.438-31.348-58.18-72.355-49.309-99.035zm-100.38 244.38 26.297-205.9h64.336c8.4844 22.008 24.922 43.555 38.953 59.301l-59.613 1.9219c-0.125 0.003906-0.21484 0.11328-0.33984 0.12109-1.2539 0.10156-2.4375 0.5-3.4688 1.2578-0.14453 0.10547-0.23047 0.24219-0.36719 0.35938-0.45312 0.39062-0.9375 0.74219-1.2891 1.2656-0.16016 0.23047-0.58594 0.95703-1.0898 1.9023-16.129-9.3633-26.637-4.7891-31.48-1.2305-7.0625 5.1992-10.629 14.691-8.6797 23.105 2.9453 12.629 2.5352 18.188-5.9766 33.199-3.8867 6.8672-4.8945 13.469-2.9883 19.613 2.7891 8.9492 10.715 13.031 11.637 13.484 9.9141 4.7695 17.555 5.3555 20.453 5.3555 0.77344 0 1.207-0.050781 1.25-0.050781 5.1289 0.21875 7.6562-2.0156 9.2539-3.7773 0.88281-0.95703 1.5273-2 2-3.0391 0.42578-0.18359 0.78906-0.35156 1.0664-0.48828 2.7305-1.2578 4.7266-3.6953 5.4727-6.6836 0.73828-2.957 0.15234-5.9609-1.6289-8.2969-4.1328-5.375-10-6.332-13.477-6.0117l8.6484-11.016c1.1602-1.4766 2.6484-2.6602 4.4141-3.5977 0.375 3.8281 0.73828 7.4453 2.6367 11.977 3.1133 7.4062 7.4375 12.125 12.848 14.055 1.8711 0.67188 3.625 0.90625 5.1797 0.90625 0.35547 0 0.55859-0.10547 0.89062-0.12891 0.027343 0 0.054687-0.003907 0.082031-0.003907l114.23-5.8281c11.812-1.043 22.148-6.8828 29.109-16.457 2.8828-3.9648 4.8047-8.3867 6.1055-12.949 18.934 23.246 38.602 47.375 38.602 47.375 1.2266 1.5117 3.0391 2.418 4.9883 2.5195 0.10156 0 0.21875 0.015625 0.33594 0.015625 1.8281 0 3.5781-0.73828 4.8711-2.0312l1.1719-1.1758 38.625 32.324c2.1328 1.8281 4.8203 2.7539 7.5234 2.7539 2.1836 0 4.3984-0.60547 6.332-1.8633 0.22656-0.14062 0.36328-0.36719 0.57422-0.52344 1.293 0.44141 2.543 1.0938 3.8945 1.0938 2.7188 0 5.4414-0.89062 7.6406-2.668 0.37109-0.29688 0.625-0.6875 0.95313-1.0195 0.67187 0.12109 1.3359 0.32812 2.0156 0.32812 2.2852 0 4.5664-0.67188 6.5312-2.0156 5.2891-3.5938 6.6992-10.797 3.1758-16.02-2.9062-4.3984-7.6055-9.0352-11-12.125-1.4453-1.3945-9.8398-10.73-9.8555-10.73-0.65625-0.73828-1.4766-1.3281-2.3828-1.7109 0 0-2.5039-1.0898-21.945-8.8164l-6.7148-5.1758c1.4219-2.3008 1.7188-5.1562 0.097656-7.4531l-36.898-52.141 32.672-0.79688c2.5586 1.3477 7.9141 4.5898 11.465 6.7305l3.3398 2c3.5586 2.0312 4.8867 6.7344 3.0234 10.695l-6.8828 14.508c-4.1641 8.8828-0.35156 19.512 8.3945 23.66l4.2969 2.082 0.10156 2.7188c0.38672 2.2852 1.7109 4.3164 3.6445 5.5742 1.4258 0.94141 4.0469 1.4766 5.8438 1.2266 1.1094 5.2695 5.3789 8.2188 9.7812 7.875-0.089843 3.0195 0.78516 5.3047 1.9219 6.7812 3.0547 3.9961 8.3125 4.6328 12.391 3.8281l17.582-3.543c5.875 3.5664 10.805 5.8047 13.598 6.9766 0.63281 0.83984 1.4297 1.5273 2.3828 2.0078 0.007813 0.003907 0.011719 0.011719 0.019532 0.015626 8.0938 4.1328 16.859 6.2305 25.727 6.2305 6.1953 0 12.426-1.0234 18.504-3.0742 14.711-4.9688 26.766-15.414 33.938-29.402 14.66-28.586 4.125-63.316-23.352-78.141-0.61719-0.52734-1.2695-0.95312-2-1.2266-6.1875-5.6797-14.754-9.9961-25.797-12.676l-4.4492-1.082c-22.871-5.5508-34.355-8.3359-39.715-14.09-1.7109-1.8398-4.1484-2.9141-6.6836-2.957-1.8477-0.085938-5.0391 0.94922-6.8516 2.7539-1.1289 1.1289-1.9258 2.2812-2.8203 3.4258-0.14844-0.085937-0.29297-0.16016-0.44141-0.24609 0.042968-0.125 0.1875-0.46875 0.20312-0.51562 0.77344-2.25 0.33594-4.7422-1.1758-6.582l-7.707-9.1602-3.5391-7.1562c-0.011719-0.019531-0.019532-0.039062-0.03125-0.058594l-2.9453-5.957c-0.37109-0.58984-0.79297-1.0547-1.168-1.6367h131.27l26.312 205.9-503.86 0.007812zm38.02-64.344c1.4922 1.6953 3.9883 3.4609 8.3359 4.0625-0.015626 0.085938-0.023438 0.16797-0.035157 0.25-1.9219-0.035156-7.2383-0.50391-14.324-3.9141-0.042968-0.015625-3.5859-1.8984-4.5938-5.3047-0.69531-2.3672-0.074218-5.2734 1.8477-8.6641 9.707-17.145 11.301-26.398 7.4062-43.105-0.61328-2.6367 0.38672-6.668 3.4336-8.9062 3.6758-2.7109 9.5625-1.9805 16.504 2.0898 0.66406 0.38672 1.25 0.85547 1.8125 1.293 1.7266 1.3711 9.7578 6.1602 17.699 5.9727 2.4102 4.0703 4.5625 9.3203 5.9102 15.84-15.418-1.5234-26.953 1.8281-33.871 10.633l-11.008 14.004c-0.48047 0.60547-0.85547 1.293-1.1094 2.0312-0.46094 1.375-2.5664 8.5312 1.9922 13.719zm45.371-26.477c-0.078125 4.1914-0.50781 8.7148-1.4336 13.629-1.0234-1.043-2.1641-2.7852-3.2578-5.375-1.1016-2.6211-1.3164-4.7695-1.6367-8.0273-0.023438-0.26562-0.097657-0.64453-0.125-0.91797 1.9766 0.074218 4.1992 0.37109 6.4531 0.69141z"/>
  <use x="70" y="576.40625" xlink:href="#g"/>
  <use x="74.011719" y="576.40625" xlink:href="#c"/>
  <use x="76.710938" y="576.40625" xlink:href="#a"/>
  <use x="80.417969" y="576.40625" xlink:href="#f"/>
  <use x="84.109375" y="576.40625" xlink:href="#b"/>
  <use x="86.722656" y="576.40625" xlink:href="#a"/>
  <use x="90.433594" y="576.40625" xlink:href="#k"/>
  <use x="96.25" y="576.40625" xlink:href="#j"/>
  <use x="100.167969" y="576.40625" xlink:href="#i"/>
  <use x="105.636719" y="576.40625" xlink:href="#h"/>
  <use x="109.574219" y="576.40625" xlink:href="#e"/>
  <use x="113.46875" y="576.40625" xlink:href="#f"/>
  <use x="117.15625" y="576.40625" xlink:href="#v"/>
  <use x="120.792969" y="576.40625" xlink:href="#a"/>
  <use x="124.503906" y="576.40625" xlink:href="#a"/>
  <use x="128.210938" y="576.40625" xlink:href="#u"/>
  <use x="131.992188" y="576.40625" xlink:href="#g"/>
  <use x="136.003906" y="576.40625" xlink:href="#e"/>
  <use x="139.898438" y="576.40625" xlink:href="#t"/>
  <use x="70" y="581.875" xlink:href="#s"/>
  <use x="72.378906" y="581.875" xlink:href="#c"/>
  <use x="75.078125" y="581.875" xlink:href="#d"/>
  <use x="78.832031" y="581.875" xlink:href="#r"/>
  <use x="86.4375" y="581.875" xlink:href="#b"/>
  <use x="89.050781" y="581.875" xlink:href="#e"/>
  <use x="92.941406" y="581.875" xlink:href="#a"/>
  <use x="98.554688" y="581.875" xlink:href="#q"/>
  <use x="103.132812" y="581.875" xlink:href="#d"/>
  <use x="106.890625" y="581.875" xlink:href="#p"/>
  <use x="110.785156" y="581.875" xlink:href="#o"/>
  <use x="116.582031" y="581.875" xlink:href="#n"/>
  <use x="120.589844" y="581.875" xlink:href="#c"/>
  <use x="123.285156" y="581.875" xlink:href="#d"/>
  <use x="127.042969" y="581.875" xlink:href="#m"/>
  <use x="128.917969" y="581.875" xlink:href="#a"/>
  <use x="132.625" y="581.875" xlink:href="#l"/>
  <use x="135.867188" y="581.875" xlink:href="#b"/>
 </g>
</svg>
