<?xml version="1.0" standalone="no"?>
<!DOCTYPE svg PUBLIC "-//W3C//DTD SVG 20010904//EN"
 "http://www.w3.org/TR/2001/REC-SVG-20010904/DTD/svg10.dtd">
<svg version="1.0" xmlns="http://www.w3.org/2000/svg"
 width="512.000000pt" height="512.000000pt" viewBox="0 0 512.000000 512.000000"
 preserveAspectRatio="xMidYMid meet">

<g transform="translate(0.000000,512.000000) scale(0.100000,-0.100000)"
fill="#000000" stroke="none">
<path d="M2325 5109 c-500 -51 -945 -229 -1345 -537 -195 -150 -448 -432 -594
-662 -63 -99 -186 -351 -230 -471 -51 -139 -103 -344 -128 -504 -31 -200 -31
-550 0 -750 43 -273 114 -500 237 -750 132 -269 269 -460 489 -681 221 -220
412 -357 681 -489 250 -123 477 -194 750 -237 200 -31 550 -31 750 0 272 43
496 113 750 237 407 198 750 499 1007 885 96 144 214 374 272 531 51 138 103
343 128 504 31 200 31 550 0 750 -25 160 -77 365 -128 504 -44 120 -167 372
-230 471 -146 230 -399 512 -594 662 -372 286 -776 458 -1230 523 -136 20
-458 27 -585 14z m630 -128 c411 -73 759 -224 1092 -472 125 -94 366 -335 461
-462 272 -362 433 -762 488 -1207 20 -164 15 -488 -11 -649 -63 -402 -226
-784 -476 -1118 -95 -126 -336 -367 -462 -462 -447 -334 -943 -501 -1492 -501
-375 0 -724 81 -1060 245 -273 133 -449 259 -665 475 -212 211 -350 404 -476
664 -106 220 -179 449 -221 701 -26 157 -26 573 0 730 70 419 226 784 478
1122 93 124 335 366 460 460 316 237 663 392 1036 463 179 34 248 39 493 35
185 -2 260 -7 355 -24z"/>
<path d="M2495 4786 c-17 -7 -43 -29 -58 -47 -15 -19 -32 -40 -38 -46 -5 -7
-27 -13 -48 -13 -21 0 -88 -9 -149 -19 -1222 -213 -2003 -1403 -1712 -2608
183 -759 781 -1363 1540 -1557 1349 -344 2660 673 2660 2064 0 855 -507 1623
-1295 1960 -191 82 -496 160 -626 160 -21 0 -43 6 -48 13 -6 6 -23 27 -38 46
-46 57 -122 76 -188 47z m-178 -229 c-3 -7 -47 -80 -98 -163 -92 -145 -94
-151 -94 -209 0 -47 5 -67 23 -93 48 -66 51 -67 412 -67 361 0 364 1 412 67
18 26 23 46 23 93 0 59 -2 64 -99 218 -54 87 -96 160 -93 163 8 8 133 -13 248
-42 223 -55 441 -152 635 -282 418 -281 716 -703 838 -1191 79 -312 79 -670 0
-982 -145 -580 -543 -1069 -1079 -1329 -290 -141 -559 -202 -885 -202 -327 0
-596 61 -886 203 -475 231 -852 653 -1023 1143 -131 374 -151 790 -55 1167
123 489 419 910 839 1191 233 156 494 262 770 313 95 17 118 18 112 2z"/>
<path d="M1270 3850 c-11 -11 -20 -28 -20 -37 0 -22 141 -163 163 -163 9 0 26
9 37 20 11 11 20 28 20 37 0 22 -141 163 -163 163 -9 0 -26 -9 -37 -20z"/>
<path d="M3723 3797 c-40 -40 -73 -81 -73 -90 0 -9 9 -26 20 -37 11 -11 28
-20 37 -20 9 0 50 33 90 73 40 40 73 81 73 90 0 9 -9 26 -20 37 -11 11 -28 20
-37 20 -9 0 -50 -33 -90 -73z"/>
<path d="M1796 3339 c-58 -46 -56 -16 -56 -779 l0 -700 -25 0 c-15 0 -31 -9
-41 -25 -15 -23 -15 -27 0 -50 l16 -25 870 0 870 0 16 25 c15 23 15 27 0 50
-10 16 -26 25 -41 25 l-25 0 0 700 c0 763 2 733 -56 779 -27 21 -31 21 -764
21 -733 0 -737 0 -764 -21z m1472 -161 l3 -78 -711 0 -710 0 0 73 c0 41 3 77
7 80 3 4 322 6 707 5 l701 -3 3 -77z m2 -863 l0 -455 -377 2 -378 3 -5 266
c-4 216 -8 269 -20 284 -32 38 -72 45 -257 44 -293 0 -283 12 -283 -346 l0
-253 -50 0 -50 0 0 455 0 455 710 0 710 0 0 -455z"/>
<path d="M746 2594 c-9 -8 -16 -24 -16 -34 0 -40 26 -50 134 -50 110 0 126 6
126 50 0 44 -16 50 -126 50 -80 0 -106 -3 -118 -16z"/>
<path d="M4142 2598 c-7 -7 -12 -24 -12 -38 0 -44 16 -50 126 -50 108 0 134
10 134 50 0 40 -26 50 -134 50 -66 0 -106 -4 -114 -12z"/>
<path d="M1323 1397 c-40 -41 -73 -81 -73 -90 0 -9 9 -26 20 -37 11 -11 28
-20 37 -20 9 0 49 33 90 73 40 41 73 81 73 90 0 22 -35 57 -57 57 -9 0 -49
-33 -90 -73z"/>
<path d="M3670 1450 c-11 -11 -20 -28 -20 -37 0 -22 141 -163 163 -163 9 0 26
9 37 20 11 11 20 28 20 37 0 22 -141 163 -163 163 -9 0 -26 -9 -37 -20z"/>
<path d="M2522 978 c-19 -19 -16 -212 4 -232 20 -20 48 -20 68 0 20 20 23 213
4 232 -15 15 -61 15 -76 0z"/>
</g>
</svg>
