<?xml version="1.0" standalone="no"?>
<!DOCTYPE svg PUBLIC "-//W3C//DTD SVG 20010904//EN"
 "http://www.w3.org/TR/2001/REC-SVG-20010904/DTD/svg10.dtd">
<svg version="1.0" xmlns="http://www.w3.org/2000/svg"
 width="512.000000pt" height="512.000000pt" viewBox="0 0 512.000000 512.000000"
 preserveAspectRatio="xMidYMid meet">

<g transform="translate(0.000000,512.000000) scale(0.100000,-0.100000)"
fill="#000000" stroke="none">
<path d="M801 5104 c-162 -43 -297 -185 -331 -347 -7 -36 -10 -699 -8 -2227
l3 -2175 23 -57 c48 -118 152 -222 269 -270 l58 -23 1799 -3 c2046 -3 1869
-10 1961 82 93 93 85 -150 85 2476 0 2625 8 2383 -84 2476 -92 92 82 84 -1940
83 -1523 0 -1789 -2 -1835 -15z m859 -244 c0 -121 -27 -140 -199 -140 -189 0
-201 -12 -201 -200 0 -173 -19 -200 -140 -200 l-60 0 0 300 0 300 300 0 300 0
0 -60z m2002 -27 c10 -196 115 -302 309 -311 l87 -4 4 -87 c10 -195 115 -300
310 -309 l88 -4 0 -1198 0 -1197 -86 -7 c-113 -8 -171 -34 -234 -103 -58 -64
-80 -124 -80 -223 l0 -67 -86 -7 c-113 -8 -171 -34 -234 -103 -58 -64 -80
-124 -80 -225 l0 -68 -900 0 -900 0 0 68 c0 101 -22 161 -80 225 -63 69 -121
95 -234 103 l-86 7 0 67 c0 99 -22 159 -80 223 -63 69 -121 95 -234 103 l-86
7 0 388 0 389 -29 32 c-24 27 -36 33 -71 33 -35 0 -47 -6 -71 -33 l-29 -32 0
-794 0 -794 -39 -7 c-21 -3 -66 -19 -100 -35 l-61 -29 2 1947 c3 1877 4 1948
22 1982 34 65 123 140 166 140 7 0 10 -247 10 -780 0 -838 -1 -823 49 -850 25
-13 77 -13 102 0 47 26 49 44 49 453 l0 385 88 4 c195 10 301 115 310 309 l4
87 87 4 c195 10 300 115 309 310 l4 88 898 0 898 0 4 -87z m773 62 l25 -24 0
-276 0 -275 -60 0 c-121 0 -140 27 -140 200 0 188 -12 200 -200 200 -71 0
-130 5 -145 12 -38 17 -55 58 -55 128 l0 60 275 0 276 0 24 -25z m-3242 -3388
c57 -24 62 -37 67 -194 5 -144 5 -145 33 -169 26 -22 36 -24 148 -24 182 0
219 -23 219 -137 l0 -63 -300 0 -300 0 0 300 0 300 50 0 c28 0 65 -6 83 -13z
m3267 -261 c0 -261 -1 -274 -21 -300 l-20 -26 -280 0 -279 0 0 63 c0 114 37
137 219 137 112 0 122 2 148 24 28 24 28 25 33 169 5 156 10 169 65 193 16 7
54 13 83 14 l52 0 0 -274z m0 -756 l0 -241 -25 -24 c-21 -22 -33 -25 -100 -25
l-75 0 0 260 0 259 98 4 c53 1 98 4 100 5 1 1 2 -106 2 -238z m-400 -30 l0
-260 -1608 2 -1607 3 -40 22 c-183 98 -193 347 -18 450 26 15 65 30 87 34 23
3 749 7 1614 8 l1572 1 0 -260z"/>
<path d="M3238 3889 c-10 -5 -46 -51 -82 -102 l-64 -92 -84 -24 c-129 -36
-147 -46 -164 -87 -20 -48 -11 -73 65 -173 l61 -80 0 -121 c0 -121 0 -122 29
-151 39 -38 74 -38 194 4 l94 33 99 -33 c118 -40 153 -41 191 -9 28 24 28 26
31 153 l4 128 60 78 c70 91 83 126 64 171 -16 38 -49 56 -165 88 l-84 23 -51
75 c-75 110 -97 130 -143 130 -21 0 -46 -5 -55 -11z m93 -318 c26 -33 47 -49
84 -61 28 -9 50 -21 50 -26 0 -5 -13 -28 -29 -52 -25 -37 -29 -52 -28 -104 2
-53 0 -59 -16 -53 -79 30 -125 30 -204 0 -16 -6 -18 0 -18 57 0 59 -3 69 -36
112 -24 32 -31 48 -22 50 7 3 33 11 58 18 34 11 54 26 80 61 19 26 38 46 41
45 4 -2 22 -23 40 -47z"/>
<path d="M2465 3793 c-50 -13 -176 -68 -238 -104 -153 -90 -275 -223 -352
-382 -58 -121 -85 -227 -92 -363 -23 -446 233 -833 637 -962 112 -36 181 -46
310 -46 163 0 266 25 415 99 194 97 333 237 426 430 64 131 83 206 65 249 -18
44 -43 61 -91 61 -35 0 -49 -7 -95 -47 -118 -103 -252 -152 -420 -151 -87 0
-118 4 -183 27 -263 89 -428 321 -428 599 0 155 43 274 146 400 67 83 73 121
26 168 -29 29 -69 36 -126 22z m-228 -405 c-25 -95 -27 -275 -4 -370 94 -388
459 -667 845 -644 50 3 120 13 153 21 34 9 63 14 66 12 9 -10 -103 -111 -170
-154 -330 -214 -778 -132 -1002 182 -99 138 -145 284 -145 458 0 192 63 354
192 492 39 41 73 75 77 75 4 0 -1 -33 -12 -72z"/>
<path d="M924 3011 c-12 -5 -31 -22 -44 -38 -47 -60 -1 -153 76 -153 46 0 70
14 89 50 22 43 18 76 -12 110 -30 32 -75 45 -109 31z"/>
</g>
</svg>
