<?xml version="1.0" standalone="no"?>
<!DOCTYPE svg PUBLIC "-//W3C//DTD SVG 20010904//EN"
 "http://www.w3.org/TR/2001/REC-SVG-20010904/DTD/svg10.dtd">
<svg version="1.0" xmlns="http://www.w3.org/2000/svg"
 width="512.000000pt" height="512.000000pt" viewBox="0 0 512.000000 512.000000"
 preserveAspectRatio="xMidYMid meet">

<g transform="translate(0.000000,512.000000) scale(0.100000,-0.100000)"
fill="#000000" stroke="none">
<path d="M1140 4929 c-261 -19 -477 -118 -673 -308 -143 -139 -240 -302 -293
-493 -38 -138 -44 -352 -14 -497 27 -132 66 -234 133 -346 56 -94 181 -235
270 -303 66 -52 196 -126 257 -149 25 -9 48 -19 52 -22 4 -3 -2 -42 -13 -86
-25 -108 -49 -318 -49 -441 0 -454 145 -891 417 -1259 91 -122 296 -326 421
-419 413 -305 918 -450 1415 -407 930 82 1688 755 1872 1664 119 592 -23 1201
-395 1687 -417 544 -1113 855 -1793 802 -154 -12 -330 -44 -445 -80 l-62 -20
-50 97 c-198 386 -606 612 -1050 580z m205 -123 c225 -20 477 -158 628 -344
150 -186 219 -380 219 -612 1 -170 -27 -291 -98 -433 -61 -123 -46 -172 115
-357 49 -58 90 -108 91 -111 0 -11 -72 -19 -177 -19 -66 0 -149 9 -237 25 -74
14 -147 25 -161 25 l-25 0 0 275 0 275 26 -10 c35 -14 41 -13 64 10 29 29 25
64 -10 92 l-30 24 20 41 c57 119 53 283 -10 418 -46 97 -124 180 -288 308 -83
64 -161 132 -173 150 -50 72 -84 76 -131 14 -39 -51 -67 -76 -214 -190 -173
-134 -243 -222 -285 -360 -30 -98 -24 -247 14 -330 l26 -57 -22 -11 c-29 -16
-37 -28 -37 -61 0 -39 39 -64 80 -50 l30 11 0 -265 c0 -145 -3 -264 -8 -264
-22 0 -128 85 -213 169 -144 144 -228 301 -264 496 -23 121 -16 327 15 435
117 408 467 688 890 713 45 2 56 2 165 -7z m-4 -441 c180 -143 218 -176 261
-233 99 -131 117 -321 40 -430 l-21 -29 -72 13 c-183 35 -456 35 -636 1 -82
-16 -83 -15 -119 53 -15 28 -19 57 -19 140 0 97 2 110 31 170 42 88 94 144
243 260 69 54 137 110 150 124 l24 26 28 -23 c14 -12 55 -44 90 -72z m1730
-135 c583 -58 1089 -352 1431 -831 85 -118 207 -360 254 -502 81 -246 115
-521 95 -762 -23 -278 -84 -496 -206 -740 -195 -389 -495 -687 -888 -881 -736
-363 -1621 -227 -2215 340 -414 396 -633 936 -609 1501 9 195 49 430 73 421 7
-3 60 -10 117 -16 166 -18 350 8 505 72 82 34 77 34 275 -1 241 -42 514 -15
545 54 19 42 -3 85 -109 205 -111 128 -159 191 -159 213 0 8 16 48 35 88 97
207 126 486 74 695 -7 26 -8 49 -3 54 5 4 63 22 129 38 222 55 444 73 656 52z
m-1611 -651 c36 -5 77 -12 93 -15 l27 -6 0 -308 0 -309 -67 -20 c-191 -56
-388 -56 -567 0 l-66 20 0 308 0 309 23 5 c138 33 387 41 557 16z"/>
<path d="M2855 4035 c-24 -23 -25 -28 -25 -177 0 -172 8 -198 60 -198 56 0 60
14 60 200 0 163 -1 169 -22 184 -31 22 -45 20 -73 -9z"/>
<path d="M3712 3801 c-15 -15 -40 -54 -55 -85 -28 -54 -28 -58 -12 -82 36 -56
78 -41 129 46 42 71 46 112 14 134 -32 22 -46 20 -76 -13z"/>
<path d="M2846 3428 c-14 -20 -16 -82 -16 -478 l0 -455 -50 -27 c-29 -17 -61
-45 -77 -70 -25 -37 -28 -51 -28 -124 0 -75 3 -86 30 -126 58 -83 181 -121
273 -82 43 17 97 67 118 107 l15 27 222 0 c122 0 227 4 233 8 13 8 34 46 34
61 0 6 -9 20 -20 31 -19 19 -33 20 -240 20 l-220 0 -15 38 c-20 47 -69 98
-117 123 l-38 19 0 456 c0 295 -4 462 -10 475 -15 28 -74 26 -94 -3z m120
-1082 c26 -26 34 -42 34 -71 0 -54 -53 -105 -108 -105 -61 0 -102 43 -102 105
0 40 5 51 31 76 46 42 99 41 145 -5z"/>
<path d="M4318 3167 c-99 -57 -121 -93 -80 -130 28 -25 57 -21 129 19 84 47
101 93 50 129 -29 20 -33 19 -99 -18z"/>
<path d="M1127 2312 c-23 -25 -21 -55 4 -78 18 -16 40 -19 158 -22 76 -2 153
1 172 5 41 11 59 48 41 88 l-12 25 -173 0 c-156 0 -176 -2 -190 -18z"/>
<path d="M4290 2315 c-18 -21 -16 -64 4 -83 14 -14 43 -18 164 -20 160 -4 196
3 214 42 9 20 8 30 -6 51 l-16 25 -174 0 c-142 0 -176 -3 -186 -15z"/>
<path d="M1415 1491 c-77 -49 -92 -82 -51 -117 33 -29 43 -27 128 23 71 42 88
71 64 108 -24 36 -67 32 -141 -14z"/>
<path d="M4237 1512 c-38 -42 -15 -76 89 -133 59 -32 62 -32 86 -17 57 37 41
83 -45 132 -73 40 -106 45 -130 18z"/>
<path d="M2048 922 c-37 -44 -82 -137 -75 -155 3 -9 18 -23 32 -33 38 -25 66
-7 109 69 42 75 45 109 14 131 -32 23 -53 20 -80 -12z"/>
<path d="M3651 923 c-25 -31 -22 -42 26 -125 42 -71 71 -88 108 -64 35 23 32
62 -10 135 -51 86 -87 102 -124 54z"/>
<path d="M2846 868 c-13 -18 -16 -53 -16 -174 0 -138 2 -154 21 -178 23 -30
45 -33 77 -10 21 15 22 21 22 184 0 140 -3 171 -16 184 -23 24 -70 20 -88 -6z"/>
</g>
</svg>
