<?xml version="1.0" standalone="no"?>
<!DOCTYPE svg PUBLIC "-//W3C//DTD SVG 20010904//EN"
 "http://www.w3.org/TR/2001/REC-SVG-20010904/DTD/svg10.dtd">
<svg version="1.0" xmlns="http://www.w3.org/2000/svg"
 width="512.000000pt" height="512.000000pt" viewBox="0 0 512.000000 512.000000"
 preserveAspectRatio="xMidYMid meet">

<g transform="translate(0.000000,512.000000) scale(0.100000,-0.100000)"
fill="#000000" stroke="none">
<path d="M2145 4740 l-381 -380 -480 0 -481 0 -21 -23 c-22 -23 -22 -24 -22
-502 l0 -479 -380 -381 c-350 -351 -380 -384 -380 -415 0 -31 30 -64 380 -415
l380 -381 0 -480 0 -481 23 -21 c23 -22 24 -22 502 -22 l479 0 381 -380 c351
-350 384 -380 415 -380 31 0 64 30 415 380 l381 380 480 0 481 0 21 23 c22 23
22 24 22 502 l0 479 380 381 c350 351 380 384 380 415 0 31 -30 64 -380 415
l-380 381 0 480 0 481 -23 21 c-23 21 -30 22 -276 22 l-252 0 -24 -25 c-14
-13 -25 -36 -25 -50 0 -14 11 -37 25 -50 24 -25 25 -25 225 -25 l200 0 0 -451
c0 -309 3 -457 11 -472 6 -12 169 -181 362 -374 l352 -353 -352 -353 c-193
-193 -356 -362 -362 -374 -8 -15 -11 -163 -11 -472 l0 -451 -451 0 c-309 0
-457 -3 -472 -11 -12 -6 -181 -169 -374 -362 l-353 -352 -352 352 c-194 193
-363 356 -375 362 -15 8 -163 11 -472 11 l-451 0 0 451 c0 309 -3 457 -11 472
-6 12 -169 181 -362 375 l-352 352 352 353 c193 193 356 362 362 374 8 15 11
163 11 472 l0 451 451 0 c309 0 457 3 472 11 12 6 181 169 375 362 l352 352
353 -352 c193 -193 362 -356 374 -362 12 -6 67 -11 123 -11 94 0 103 2 125 25
32 31 32 69 0 100 -21 22 -33 25 -102 25 l-77 0 -381 380 c-351 350 -384 380
-415 380 -31 0 -64 -30 -415 -380z"/>
<path d="M2240 4255 l-295 -295 -357 0 c-240 0 -365 -4 -381 -11 -14 -6 -30
-22 -36 -36 -7 -16 -11 -141 -11 -381 l0 -357 -295 -295 c-224 -225 -295 -302
-295 -320 0 -18 71 -95 295 -320 l295 -295 0 -357 c0 -240 4 -365 11 -381 17
-37 50 -47 150 -47 82 0 92 2 114 25 31 30 33 77 5 105 -15 15 -33 20 -75 20
l-55 0 0 347 0 347 -277 279 -278 279 57 52 c106 97 209 136 358 136 180 0
264 -44 465 -245 274 -274 524 -459 825 -610 377 -189 787 -298 1220 -323
l125 -7 3 -127 3 -128 -348 0 -347 0 -278 -277 -278 -278 -278 278 -278 277
-146 0 c-160 0 -180 -7 -194 -62 -5 -22 0 -33 24 -58 30 -30 31 -30 144 -30
l113 0 295 -295 c225 -224 302 -295 320 -295 18 0 95 71 320 295 l295 295 357
0 c240 0 365 4 381 11 14 6 30 22 36 36 7 16 11 141 11 381 l0 357 295 295
c224 225 295 302 295 320 0 18 -71 95 -295 320 l-295 295 0 357 c0 240 -4 365
-11 381 -6 14 -22 30 -36 36 -16 7 -141 11 -381 11 l-357 0 -295 295 c-225
224 -302 295 -320 295 -18 0 -95 -71 -320 -295z m600 -170 l276 -275 347 0
347 0 0 -346 0 -347 106 -107 105 -107 -108 -5 c-121 -5 -213 -32 -311 -90
-34 -19 -121 -97 -214 -190 -142 -141 -158 -160 -158 -191 0 -36 19 -60 58
-72 34 -10 79 25 218 169 170 176 269 226 443 226 151 0 258 -41 361 -137 l55
-52 -277 -278 -278 -279 0 -142 0 -142 -63 0 c-235 0 -632 74 -880 164 -140
51 -137 46 -59 90 85 50 240 152 270 179 44 41 13 127 -46 127 -15 0 -77 -34
-146 -79 -67 -44 -168 -104 -225 -135 l-104 -56 -76 42 c-292 160 -484 306
-751 570 -89 87 -180 167 -212 186 -98 58 -190 85 -311 90 l-108 5 105 107
106 107 0 347 0 346 347 0 347 0 276 275 c151 151 277 275 280 275 2 0 129
-124 280 -275z"/>
<path d="M2516 3779 c-23 -18 -26 -28 -26 -80 0 -71 21 -99 73 -99 50 0 72 30
72 97 0 48 -4 58 -28 79 -34 29 -56 30 -91 3z"/>
<path d="M2195 3690 c-26 -29 -23 -72 8 -119 31 -47 68 -61 106 -40 52 29 50
95 -5 154 -29 32 -83 34 -109 5z"/>
<path d="M2815 3678 c-50 -60 -55 -113 -12 -143 48 -33 94 -11 131 62 21 42
20 55 -5 87 -30 38 -79 36 -114 -6z"/>
<path d="M2000 3483 c-55 -20 -70 -96 -25 -131 65 -51 125 -52 154 -1 21 37 7
75 -37 103 -43 28 -71 36 -92 29z"/>
<path d="M2443 3476 c-142 -46 -247 -169 -273 -317 -14 -80 6 -188 46 -257 83
-141 253 -223 406 -194 168 31 289 148 323 311 38 178 -56 362 -223 439 -69
32 -209 41 -279 18z m223 -157 c150 -72 185 -275 68 -393 -97 -96 -251 -96
-348 0 -47 48 -69 102 -69 169 0 99 50 182 136 224 57 29 155 29 213 0z"/>
<path d="M3039 3460 c-48 -25 -69 -72 -48 -109 29 -52 89 -53 148 -3 26 21 34
36 34 60 0 67 -61 91 -134 52z"/>
<path d="M1881 3144 c-12 -15 -21 -33 -21 -40 0 -67 89 -106 159 -69 46 23 56
80 21 115 -16 16 -33 20 -79 20 -52 0 -62 -3 -80 -26z"/>
<path d="M3082 3147 c-30 -31 -28 -72 4 -104 23 -23 31 -25 81 -21 43 4 61 10
75 28 25 31 23 66 -7 95 -34 35 -121 36 -153 2z"/>
<path d="M2009 2867 c-77 -41 -85 -108 -16 -147 25 -14 30 -13 74 10 61 32 81
66 64 107 -11 27 -46 53 -70 53 -4 0 -28 -10 -52 -23z"/>
<path d="M3001 2854 c-12 -15 -21 -34 -21 -43 0 -40 74 -101 122 -101 36 0 68
35 68 73 0 40 -6 49 -50 76 -49 29 -93 28 -119 -5z"/>
<path d="M2240 2667 c-14 -7 -36 -33 -49 -58 -22 -41 -23 -49 -12 -77 26 -63
100 -63 139 0 37 60 38 84 4 118 -34 33 -45 36 -82 17z"/>
<path d="M2819 2668 c-16 -5 -32 -22 -40 -40 -11 -28 -10 -36 12 -77 13 -25
36 -52 52 -61 24 -13 30 -13 55 0 15 9 33 28 40 43 12 25 11 33 -11 75 -28 53
-66 75 -108 60z"/>
<path d="M2519 2587 c-40 -30 -51 -96 -24 -146 23 -46 76 -55 113 -21 18 17
22 32 22 80 0 51 -3 61 -26 79 -30 23 -61 26 -85 8z"/>
<path d="M3768 2506 c-41 -31 -37 -113 7 -130 22 -8 148 -8 170 0 26 10 45 63
34 93 -16 41 -38 50 -119 50 -46 0 -82 -5 -92 -13z"/>
<path d="M3201 2094 c-53 -67 -2 -124 110 -124 81 0 119 28 119 86 0 48 -31
64 -124 64 -79 0 -86 -2 -105 -26z"/>
<path d="M1454 2217 c-35 -31 -38 -82 -5 -109 35 -27 173 -26 201 2 30 30 27
83 -6 109 -40 32 -152 30 -190 -2z"/>
<path d="M2025 1815 c-14 -13 -25 -36 -25 -50 0 -14 11 -37 25 -50 21 -22 33
-25 98 -25 91 0 127 21 127 75 0 54 -36 75 -127 75 -65 0 -77 -3 -98 -25z"/>
<path d="M1556 1609 c-33 -26 -36 -79 -6 -109 28 -28 166 -29 201 -2 33 27 30
78 -5 109 -38 32 -150 34 -190 2z"/>
<path d="M2419 1402 c-33 -27 -30 -78 5 -109 38 -32 150 -34 190 -2 33 26 36
79 6 109 -28 28 -166 29 -201 2z"/>
</g>
</svg>
